<?xml version="1.0" standalone="no"?>
<!DOCTYPE svg PUBLIC "-//W3C//DTD SVG 20010904//EN"
 "http://www.w3.org/TR/2001/REC-SVG-20010904/DTD/svg10.dtd">
<svg version="1.0" xmlns="http://www.w3.org/2000/svg"
 width="1200.000000pt" height="1600.000000pt" viewBox="0 0 1200.000000 1600.000000"
 preserveAspectRatio="xMidYMid meet">

<g transform="translate(0.000000,1600.000000) scale(0.100000,-0.100000)"
fill="#000000" stroke="none">
<path d="M6036 15973 c4 -16 14 -41 23 -58 l16 -30 3 43 c3 45 -10 72 -34 72
-11 0 -13 -7 -8 -27z"/>
<path d="M6100 15808 c9 -38 34 -106 61 -163 10 -22 28 -71 40 -109 35 -112
15 -260 -41 -299 -18 -13 -21 -21 -15 -44 7 -26 8 -26 16 -8 6 14 7 8 3 -20
-3 -22 -11 -43 -17 -47 -14 -9 -13 -65 3 -153 14 -77 9 -212 -11 -260 -6 -17
-12 -88 -14 -160 -1 -72 -7 -139 -12 -150 -6 -11 -13 -54 -17 -95 -3 -41 -9
-97 -14 -125 -4 -27 -4 -72 1 -100 4 -27 8 -167 8 -310 0 -235 2 -268 22 -345
18 -70 22 -112 21 -235 0 -182 -15 -253 -78 -387 -25 -54 -46 -102 -46 -108 0
-15 -28 -58 -75 -115 -23 -27 -54 -69 -70 -93 -15 -23 -43 -58 -62 -78 -19
-20 -44 -57 -57 -83 -39 -76 -86 -104 -86 -50 0 12 -12 27 -30 37 -28 16 -30
21 -30 73 0 31 5 70 11 88 18 51 -3 88 -52 93 -21 2 -39 -1 -39 -6 0 -5 -9
-19 -20 -31 -21 -23 -25 -41 -22 -110 2 -37 4 -40 31 -41 43 -2 61 -11 61 -34
0 -11 -3 -20 -8 -20 -10 0 -29 -65 -38 -129 -5 -38 -3 -55 6 -61 10 -6 9 -17
-5 -54 -15 -38 -17 -61 -10 -129 10 -108 8 -137 -8 -156 -25 -29 -49 -85 -58
-133 -4 -26 -17 -57 -28 -70 -12 -12 -21 -34 -21 -49 0 -40 -17 -79 -37 -85
-10 -3 -26 -10 -35 -15 -21 -10 -44 -3 -52 17 -6 14 -36 20 -36 7 0 -20 -73
-83 -96 -83 -13 0 -24 -4 -24 -10 0 -21 -37 -9 -48 16 -13 28 -32 24 -32 -7 0
-12 -7 -19 -19 -19 -16 0 -20 8 -23 38 l-3 37 -15 -30 c-11 -21 -23 -30 -40
-31 -17 0 -40 -15 -66 -43 l-40 -43 -31 16 -31 16 -14 -42 c-18 -54 -34 -58
-55 -14 -9 20 -19 36 -22 36 -14 -1 -39 -27 -45 -48 -11 -34 -41 -24 -41 13 0
17 -6 48 -12 70 -7 22 -15 66 -18 98 -4 31 -10 57 -14 57 -8 0 -21 38 -42 125
-7 28 -15 55 -19 60 -4 6 -10 26 -13 45 -6 38 -26 139 -31 155 -2 6 -6 24 -10
40 -4 17 -20 57 -36 90 -15 33 -35 77 -44 98 -8 20 -19 37 -24 37 -5 0 -12 13
-15 29 -3 15 -17 42 -31 59 -15 17 -26 42 -26 59 0 19 -12 43 -35 69 -22 24
-35 49 -35 66 0 29 -14 45 -25 28 -11 -18 -27 1 -21 25 6 25 -3 53 -32 96 -9
14 -29 44 -44 67 -16 23 -28 54 -28 69 0 24 -56 162 -71 173 -4 3 -10 21 -14
40 -9 40 -45 100 -89 148 -24 25 -31 43 -32 75 -2 61 -28 144 -53 171 -12 13
-29 45 -37 71 -7 26 -27 69 -44 96 -16 27 -30 55 -30 63 0 29 -23 76 -40 81
-12 4 -16 12 -13 25 3 11 -4 39 -15 62 -11 24 -23 54 -27 68 -4 14 -15 34 -25
45 -9 11 -25 45 -36 75 -10 30 -26 64 -36 76 -10 11 -18 29 -18 41 0 30 -20
85 -40 108 -21 24 -50 83 -50 101 0 7 -11 23 -24 36 -14 13 -27 35 -30 50 -6
38 -14 48 -35 48 -10 0 -24 7 -32 16 -10 13 -10 17 1 24 12 7 9 15 -15 40 -16
16 -32 30 -37 30 -5 0 -16 -16 -25 -35 -9 -19 -23 -35 -32 -35 -11 0 -10 -3 5
-14 27 -21 7 -38 -35 -30 -21 4 -36 14 -38 26 -7 23 -33 24 -33 1 0 -15 -12
-18 -80 -21 l-80 -2 0 26 c0 20 -4 25 -16 20 -23 -9 -64 23 -64 50 0 15 -6 24
-16 24 -24 0 -13 43 14 55 29 13 28 25 -3 25 -22 0 -25 4 -25 40 0 29 4 40 15
40 10 0 15 10 15 31 l0 31 77 -7 c50 -5 95 -16 125 -31 46 -24 118 -33 118
-15 0 5 -13 23 -30 41 -23 24 -30 42 -30 71 0 25 -5 42 -14 45 -8 3 -16 14
-19 25 -3 11 -14 19 -25 19 -11 0 -25 7 -32 15 -9 10 -9 15 -1 15 20 0 12 18
-23 51 -26 24 -36 43 -41 78 -7 50 -31 111 -44 111 -5 0 -19 22 -32 49 -13 27
-26 48 -30 45 -4 -2 -13 11 -20 29 -7 17 -25 47 -41 65 -16 19 -28 44 -28 60
0 30 -16 52 -37 52 -7 0 -13 -11 -13 -25 0 -14 -5 -25 -11 -25 -5 0 -8 -4 -5
-9 4 -5 -5 -45 -19 -88 -49 -158 -66 -223 -70 -270 -2 -26 -8 -61 -15 -78 -21
-52 -39 -118 -35 -125 2 -3 -4 -20 -15 -37 -10 -17 -22 -52 -26 -79 -4 -26
-15 -62 -25 -79 -11 -17 -23 -51 -28 -76 -12 -53 -24 -98 -45 -159 -30 -88
-46 -153 -46 -184 0 -17 -9 -46 -20 -64 -11 -18 -20 -44 -20 -57 0 -20 5 -25
27 -25 33 0 96 -63 79 -80 -5 -5 -8 -10 -6 -11 35 -6 45 -10 48 -18 2 -6 12
-11 23 -11 15 0 19 -7 19 -39 0 -22 -4 -41 -9 -43 -6 -2 -7 -18 -2 -38 7 -34
7 -34 56 -32 35 2 46 0 36 -7 -12 -8 -11 -13 10 -30 27 -23 54 -27 65 -10 3 6
19 -21 34 -60 16 -40 35 -83 44 -96 9 -13 16 -35 16 -47 0 -13 9 -29 20 -36
11 -7 20 -19 20 -27 0 -11 11 -15 40 -15 38 0 52 -12 30 -25 -13 -8 15 -64 36
-72 7 -3 14 -16 14 -29 0 -18 9 -28 38 -41 35 -15 62 -49 62 -79 0 -7 13 -23
28 -36 24 -20 27 -29 24 -64 l-4 -41 51 7 c28 3 53 4 56 2 11 -12 4 -22 -16
-22 -18 0 -20 -2 -8 -16 12 -14 14 -14 25 0 18 25 40 19 57 -15 9 -19 17 -27
21 -20 10 15 26 4 26 -18 0 -10 9 -30 20 -44 11 -14 20 -33 20 -42 0 -13 6
-16 25 -13 29 6 37 -3 53 -58 15 -53 45 -82 67 -64 13 11 15 8 15 -19 0 -17 5
-31 10 -31 6 0 10 -6 10 -13 0 -18 39 -97 48 -97 4 0 18 -25 32 -55 14 -30 30
-55 36 -55 7 0 10 -8 7 -18 -5 -22 58 -75 79 -67 13 5 38 -36 38 -62 0 -7 7
-13 15 -13 8 0 19 -16 25 -40 6 -22 15 -40 20 -40 6 0 10 -8 10 -17 0 -9 18
-34 40 -54 22 -21 40 -40 40 -44 0 -4 15 -25 34 -46 18 -22 36 -52 39 -67 4
-15 27 -48 52 -74 25 -27 45 -56 45 -65 0 -10 16 -37 35 -61 18 -24 43 -64 55
-90 12 -26 29 -62 38 -81 9 -19 16 -41 14 -48 -2 -7 2 -13 8 -13 5 0 10 -7 10
-15 0 -8 9 -24 21 -36 16 -16 20 -30 17 -67 -3 -40 0 -48 18 -56 19 -8 22 -20
26 -82 3 -41 11 -80 18 -89 8 -10 13 -40 12 -80 0 -48 3 -63 12 -59 8 3 16 -1
19 -9 4 -11 -7 -16 -47 -21 -67 -9 -113 9 -120 47 -7 38 -59 128 -96 166 -14
14 -35 42 -48 62 -12 20 -28 42 -35 47 -18 15 -57 3 -57 -17 0 -9 -9 -24 -20
-34 -11 -10 -20 -29 -20 -46 0 -16 -6 -31 -15 -35 -8 -3 -15 -12 -15 -21 0
-11 -11 -15 -45 -15 -25 0 -45 4 -45 8 0 5 -10 13 -22 19 -31 14 -66 -1 -78
-32 -13 -35 -34 -40 -67 -17 -44 31 -71 36 -75 15 -4 -15 -7 -13 -18 10 -12
25 -18 28 -54 25 -37 -3 -43 -7 -61 -46 -11 -24 -27 -47 -35 -52 -23 -15 -67
-12 -73 5 -9 21 -83 65 -110 65 -13 0 -28 -5 -33 -10 -6 -6 -29 -12 -51 -13
-30 -1 -42 -6 -49 -21 -5 -12 -22 -25 -39 -31 -16 -5 -41 -20 -55 -32 -14 -13
-33 -23 -42 -23 -10 0 -18 -4 -18 -10 0 -5 -7 -10 -15 -10 -8 0 -15 7 -15 15
0 21 -43 19 -63 -3 -10 -10 -17 -26 -17 -34 0 -25 -29 -88 -41 -88 -17 0 -58
53 -59 76 0 24 -44 69 -59 60 -12 -8 6 -56 21 -56 4 0 8 -9 8 -20 0 -11 11
-46 23 -78 25 -60 23 -86 -7 -111 -9 -7 -16 -20 -16 -28 0 -7 -6 -16 -14 -19
-8 -3 -20 -19 -26 -35 -9 -20 -19 -29 -36 -29 -14 0 -24 -6 -24 -15 0 -7 -7
-18 -14 -22 -8 -5 -22 -24 -30 -43 -8 -19 -15 -31 -16 -25 0 5 -19 -9 -42 -32
-50 -48 -118 -81 -118 -57 0 8 -9 14 -21 14 -18 0 -20 -2 -8 -16 10 -13 8 -19
-14 -40 -15 -14 -27 -31 -27 -39 0 -19 -17 -19 -36 0 -22 22 -54 19 -54 -4 0
-11 -6 -26 -14 -34 -9 -8 -12 -24 -9 -36 4 -17 0 -24 -16 -28 -14 -3 -21 -13
-21 -29 0 -21 -5 -24 -34 -24 -28 0 -40 -8 -67 -40 -18 -22 -40 -40 -48 -40
-24 0 -102 -92 -95 -112 4 -13 0 -18 -16 -18 -12 0 -34 -9 -48 -21 -15 -11
-28 -16 -30 -11 -4 14 -76 -9 -105 -33 -13 -11 -27 -28 -30 -39 -4 -10 -13
-16 -21 -13 -16 7 -55 -33 -49 -49 4 -13 -35 -44 -84 -65 -26 -11 -32 -18 -27
-34 6 -20 6 -20 -9 0 -8 10 -12 25 -10 32 4 10 -4 14 -28 13 -75 -1 -109 6
-124 25 -15 21 -20 13 -16 -27 1 -9 -3 -19 -9 -23 -5 -3 -10 0 -10 8 0 8 -7
17 -15 21 -8 3 -15 15 -15 27 0 17 -4 20 -24 15 -20 -5 -25 -1 -30 20 -4 16
-12 24 -21 21 -9 -4 -15 6 -20 36 -7 36 -9 39 -20 23 -12 -16 -14 -14 -20 14
-4 17 -13 34 -21 37 -7 2 -16 14 -20 25 -8 26 -36 58 -45 53 -4 -3 -10 6 -13
20 -5 18 -12 24 -29 22 -18 -2 -23 4 -27 31 -9 56 -20 46 -74 -67 -14 -29 -26
-61 -26 -70 0 -9 -4 -21 -10 -27 -10 -10 -70 -188 -70 -208 0 -22 -44 -152
-57 -167 -7 -8 -13 -21 -13 -28 0 -7 -11 -38 -26 -69 -50 -113 -56 -128 -94
-242 -46 -136 -47 -139 -109 -272 -23 -48 -41 -92 -41 -98 0 -5 -5 -10 -10
-10 -7 0 -10 -34 -10 -92 2 -73 -2 -103 -18 -138 -11 -25 -23 -60 -26 -77 -4
-17 -16 -39 -27 -49 -10 -9 -19 -23 -19 -29 0 -7 -10 -27 -23 -46 -12 -19 -35
-65 -51 -104 -15 -38 -32 -78 -37 -87 -4 -9 -18 -56 -29 -105 -12 -48 -30
-110 -40 -138 -11 -27 -22 -67 -26 -87 -3 -21 -12 -42 -20 -49 -8 -6 -14 -21
-14 -33 0 -12 -5 -27 -12 -34 -34 -34 -38 -83 -38 -473 l0 -386 25 -11 c14 -6
25 -16 25 -21 0 -5 16 -18 35 -30 19 -11 34 -26 33 -33 -2 -7 7 -17 20 -23 12
-5 22 -15 22 -22 0 -6 12 -21 26 -32 14 -11 24 -28 22 -38 -1 -10 7 -29 20
-43 12 -14 28 -32 34 -40 14 -16 16 -149 4 -169 -4 -6 -2 -20 5 -32 9 -17 8
-31 -2 -63 l-13 -41 -7 30 c-6 29 -7 29 -9 -10 -1 -22 -1 -51 -1 -65 1 -14 -5
-39 -13 -55 -9 -17 -16 -37 -16 -46 0 -9 -8 -20 -17 -24 -16 -6 -15 -8 5 -16
20 -8 22 -15 23 -81 0 -40 1 -88 2 -107 1 -19 -3 -36 -10 -38 -26 -10 -11
-152 19 -173 4 -3 9 -35 10 -70 2 -36 9 -75 16 -87 7 -12 12 -28 12 -36 0 -8
7 -20 15 -27 10 -8 12 -17 6 -29 -13 -23 -2 -71 16 -71 8 0 12 4 9 8 -2 4 -1
14 5 22 7 12 9 10 9 -7 0 -15 10 -28 30 -38 22 -11 30 -23 30 -41 0 -21 3 -24
14 -15 10 9 16 8 26 -3 15 -19 5 -36 -22 -36 -13 0 -18 -5 -15 -14 4 -9 -9
-18 -41 -28 -60 -19 -74 -41 -46 -68 17 -17 34 -21 98 -22 l78 -1 -6 -38 c-6
-38 -5 -39 24 -39 16 0 30 5 30 11 0 6 7 4 15 -5 8 -8 15 -26 15 -40 0 -24 3
-26 50 -26 47 0 66 -12 38 -23 -7 -3 6 -6 30 -6 40 -1 42 -2 42 -31 0 -28 2
-30 40 -30 34 0 40 -3 40 -22 l0 -21 23 21 c16 15 37 22 68 23 58 2 70 12 58
51 -11 40 5 61 40 55 36 -7 51 2 51 29 0 22 3 24 43 21 l42 -4 -3 39 c-3 30
-1 38 12 38 9 0 19 -7 22 -15 4 -8 15 -15 25 -15 10 0 19 7 19 15 0 16 16 20
63 16 21 -2 27 2 27 18 0 11 9 35 20 53 l20 33 0 -33 c0 -37 9 -35 65 12 17
15 40 35 53 46 13 10 40 22 60 26 20 4 43 15 50 26 7 10 18 18 23 18 6 0 17 7
25 15 9 8 26 15 39 15 13 0 29 2 37 3 7 2 10 2 6 0 -14 -8 -9 -23 7 -23 8 0
15 -6 15 -14 0 -8 6 -16 12 -18 14 -5 19 7 -83 -203 -35 -71 -71 -142 -81
-157 -10 -14 -18 -31 -18 -37 0 -7 -8 -24 -18 -39 -10 -15 -33 -48 -50 -74
-18 -25 -32 -49 -32 -53 0 -3 -5 -11 -11 -18 -15 -18 -172 -255 -188 -286 -8
-14 -23 -38 -35 -52 -12 -14 -34 -43 -51 -64 -16 -21 -46 -57 -65 -79 -20 -23
-49 -61 -65 -85 -17 -24 -43 -58 -59 -75 -43 -45 -110 -127 -132 -161 -10 -17
-28 -38 -39 -48 -53 -45 -75 -72 -75 -89 0 -10 -7 -18 -15 -18 -8 0 -74 -60
-147 -133 -74 -72 -150 -145 -169 -162 -55 -45 -129 -115 -129 -120 0 -8 -56
-65 -64 -65 -4 0 -46 -38 -94 -85 -47 -47 -90 -85 -93 -85 -4 0 -7 -64 -7
-142 0 -96 3 -136 9 -123 6 14 7 3 3 -35 -3 -30 -7 -68 -9 -85 l-3 -30 13 30
c8 17 14 38 15 48 0 20 16 23 23 5 5 -15 10 -5 28 62 7 25 14 38 16 28 2 -9
-3 -39 -11 -67 -8 -28 -11 -53 -6 -56 4 -3 10 2 14 10 3 8 14 15 25 15 22 0
35 -28 25 -54 -3 -9 -1 -16 5 -16 6 0 11 12 11 28 1 31 21 111 34 130 11 18 0
27 -17 13 -12 -9 -13 -2 -9 41 6 68 22 87 23 27 0 -40 1 -42 10 -19 6 14 12
36 13 50 2 13 8 26 15 28 8 3 8 -3 1 -24 -6 -15 -8 -29 -5 -33 9 -8 25 20 25
44 0 26 39 145 39 123 1 -23 20 -23 28 -1 6 15 7 15 14 -3 6 -15 8 -15 8 -3 1
19 31 48 31 30 0 -6 5 -11 10 -11 6 0 10 8 10 19 0 15 7 18 38 17 32 -1 37 2
34 19 -2 11 -8 22 -12 25 -16 10 5 75 28 85 12 5 22 17 22 27 0 9 5 20 10 23
6 3 10 -3 10 -15 0 -12 5 -18 10 -15 6 3 10 15 10 26 0 21 16 26 23 7 4 -8 6
-7 6 4 1 9 -5 18 -11 20 -10 4 -10 10 -1 29 l12 24 1 -25 c2 -25 2 -25 15 5 8
17 15 44 15 60 1 17 5 39 10 50 6 13 7 -7 4 -55 -3 -45 -2 -71 4 -65 10 11 32
127 32 169 0 14 5 26 10 26 11 0 4 -97 -11 -144 -11 -36 -11 -46 -1 -46 5 0
15 33 22 73 7 39 17 77 22 82 9 10 9 1 -7 -100 -4 -22 -3 -36 1 -32 5 5 14 40
21 79 6 39 17 76 24 82 9 8 10 7 7 -4 -9 -25 10 -49 32 -43 12 3 18 8 15 11
-2 3 0 11 5 18 6 6 10 16 9 20 -6 34 3 74 16 74 8 0 15 5 15 11 0 5 -5 7 -10
4 -6 -3 -10 -1 -10 4 0 6 6 11 14 11 8 0 17 8 19 18 3 9 5 -4 6 -30 0 -27 -3
-48 -9 -48 -5 0 -10 5 -10 11 0 5 -5 7 -10 4 -10 -6 -15 -45 -6 -45 3 0 16 4
30 10 23 8 26 16 27 57 0 27 7 71 14 98 l13 50 2 -50 c2 -47 2 -48 11 -20 5
17 7 42 5 57 -3 15 -1 30 4 33 6 3 10 -5 10 -19 0 -14 4 -28 10 -31 6 -4 10
11 10 39 0 55 20 73 21 19 0 -30 2 -34 9 -18 5 11 9 36 10 55 1 34 1 35 14 11
l13 -23 7 23 8 24 7 -25 c7 -23 8 -22 15 14 11 55 28 26 20 -34 -4 -33 -3 -41
5 -30 6 8 11 34 11 57 0 44 19 71 21 31 1 -13 6 1 11 30 11 62 16 63 19 4 4
-53 19 -55 19 -2 0 38 13 54 23 28 3 -7 6 -2 6 11 1 33 18 15 24 -24 3 -24 4
-21 6 13 1 30 5 42 16 42 10 0 15 10 15 30 0 35 17 40 23 8 2 -13 5 2 7 32 2
44 4 50 10 30 4 -14 8 -46 9 -72 1 -65 19 -61 23 4 l3 53 13 -35 c11 -33 12
-32 8 30 -2 36 -7 73 -11 83 -4 9 -3 17 3 17 6 0 15 -24 20 -52 9 -52 9 -53
20 -25 8 18 16 25 24 21 8 -5 9 -2 5 9 -3 9 0 20 7 24 8 5 15 17 17 27 2 11
13 20 23 22 29 4 42 -7 23 -20 -8 -7 -16 -18 -17 -26 -5 -30 0 -70 8 -70 5 0
7 14 4 30 -3 24 -1 29 11 24 9 -3 18 -13 20 -22 4 -13 5 -13 6 3 1 17 3 18 12
5 8 -11 12 -12 16 -2 8 20 22 14 16 -8 -7 -28 16 -26 26 2 l8 23 8 -24 c6 -18
9 -21 16 -10 8 12 10 12 18 0 10 -16 26 3 16 19 -12 20 24 21 45 2 12 -11 32
-23 45 -26 26 -7 80 17 80 36 0 21 26 21 32 -1 3 -12 12 -21 20 -21 8 0 17 -9
20 -20 4 -15 14 -20 38 -20 45 0 95 -19 95 -37 0 -8 6 -13 13 -10 6 2 11 16 9
31 -1 14 1 27 5 27 63 10 113 -4 113 -32 0 -21 28 -39 61 -39 17 0 20 -4 16
-21 -5 -19 -4 -20 12 -5 16 14 19 14 33 0 13 -13 17 -14 28 -2 11 12 18 10 42
-14 16 -15 37 -28 47 -28 10 0 21 -3 25 -7 4 -4 13 -8 19 -9 24 -2 57 -17 57
-24 0 -5 -8 -11 -17 -13 -10 -3 2 -5 27 -6 38 -2 42 -4 22 -12 -38 -15 -15
-32 33 -24 36 5 45 3 57 -14 8 -12 17 -18 21 -15 3 3 22 -2 43 -12 28 -13 39
-15 42 -6 2 8 12 2 25 -14 19 -25 19 -27 2 -37 -17 -9 -16 -11 6 -23 13 -7 43
-13 66 -14 27 0 57 -9 87 -27 39 -24 45 -32 41 -53 -4 -17 -3 -21 4 -11 7 11
10 11 17 -2 5 -8 36 -28 69 -43 33 -15 62 -31 65 -35 11 -14 50 -29 75 -29 18
0 28 -7 35 -25 5 -14 9 -31 7 -38 -3 -17 42 -21 49 -3 5 12 8 12 24 -4 10 -10
24 -22 32 -26 8 -5 21 -22 29 -39 8 -16 21 -30 29 -30 8 0 21 -4 28 -8 8 -6
12 -2 12 12 0 11 4 22 9 25 5 4 7 -3 4 -14 -7 -27 42 -71 105 -96 53 -20 84
-51 76 -76 -4 -14 0 -18 19 -18 25 0 62 -32 51 -43 -10 -10 46 -28 65 -22 10
3 25 -3 34 -12 56 -60 67 -73 67 -81 0 -4 13 -18 30 -30 16 -13 30 -28 30 -35
0 -17 58 -50 75 -43 10 3 17 -3 21 -20 4 -14 17 -30 32 -35 21 -8 24 -14 19
-45 -6 -33 -4 -35 21 -33 44 3 72 -11 72 -36 0 -15 7 -25 21 -28 12 -3 18 -10
14 -16 -3 -6 -2 -11 3 -11 6 0 13 -16 16 -35 4 -19 11 -35 16 -35 5 0 11 -8
13 -17 4 -17 5 -17 6 0 0 9 5 17 10 17 5 0 7 -9 4 -19 -3 -13 3 -25 21 -36 15
-10 25 -23 24 -29 -2 -6 1 -12 7 -13 5 -1 12 -10 16 -20 3 -10 19 -20 35 -23
17 -3 33 -14 39 -28 6 -13 19 -22 32 -22 18 0 23 -6 23 -25 0 -27 -18 -33 -38
-13 -10 10 -15 10 -22 -2 -5 -8 -10 -24 -10 -34 0 -18 1 -18 19 -2 16 15 19
15 31 1 10 -12 16 -13 26 -4 11 9 14 6 14 -15 0 -15 6 -26 13 -26 10 0 14 -13
14 -42 0 -24 5 -44 12 -46 7 -2 24 -14 39 -27 21 -18 24 -26 15 -37 -10 -11
-8 -17 7 -28 12 -9 16 -18 11 -24 -12 -14 -9 -69 4 -79 6 -4 5 -10 -4 -16 -7
-5 -10 -14 -7 -20 4 -6 0 -11 -8 -11 -9 0 -16 5 -16 10 0 6 -7 10 -17 10 -14
0 -14 -2 2 -20 17 -19 17 -21 -1 -41 -17 -19 -17 -22 -3 -32 34 -26 52 -68 50
-118 -1 -33 3 -49 11 -50 7 -1 -5 -5 -26 -10 -26 -6 -43 -6 -50 1 -14 14 -66
13 -66 -1 0 -7 -11 -9 -30 -5 -16 3 -43 9 -59 12 -22 5 -29 2 -33 -14 -5 -17
-13 -19 -69 -17 -71 2 -109 11 -109 26 0 15 -32 10 -52 -8 -16 -14 -21 -15
-28 -4 -5 10 -18 12 -43 7 -24 -5 -37 -3 -40 6 -3 7 -6 -6 -6 -29 -1 -42 -2
-43 -36 -43 -19 0 -35 -5 -35 -11 0 -5 4 -8 9 -5 5 3 14 -1 21 -9 16 -19 39
-19 46 0 8 19 30 19 38 0 3 -8 15 -15 26 -15 11 0 20 -4 20 -8 0 -18 86 -33
186 -34 71 -1 105 -5 108 -13 2 -7 22 -15 43 -19 21 -3 45 -8 55 -9 9 -2 23
-9 32 -16 8 -7 19 -11 23 -8 13 8 53 -12 53 -26 0 -8 18 -20 40 -27 22 -7 45
-19 51 -27 16 -19 26 -16 32 8 5 20 7 19 38 -11 21 -20 40 -29 52 -26 21 5 57
-26 57 -49 0 -8 7 -15 15 -15 8 0 15 7 15 16 0 8 5 12 10 9 6 -3 10 -15 10
-25 0 -11 9 -24 19 -30 16 -8 21 -6 26 10 4 14 15 20 36 20 24 0 29 -4 29 -24
0 -15 -7 -26 -20 -29 -17 -4 -19 -11 -14 -39 4 -18 8 -35 10 -37 2 -2 17 7 33
19 l31 21 0 -21 c0 -13 -9 -24 -26 -30 -19 -8 -24 -15 -19 -28 3 -9 9 -29 12
-44 3 -16 9 -28 13 -28 5 0 11 -18 15 -40 7 -44 31 -54 56 -24 12 14 14 14 20
-3 15 -37 10 -43 -36 -43 -25 0 -45 -4 -45 -9 0 -5 -9 -7 -21 -4 -15 4 -22 0
-26 -16 -3 -11 -12 -21 -19 -21 -8 0 -14 -6 -14 -14 0 -8 -6 -16 -12 -19 -20
-7 5 -41 33 -46 28 -4 39 -17 39 -51 0 -19 12 -32 50 -55 28 -16 50 -33 50
-37 0 -4 10 -8 23 -8 12 -1 40 -9 62 -20 22 -11 47 -20 55 -20 8 0 39 -11 68
-25 30 -14 67 -25 83 -25 16 0 29 -4 29 -8 0 -5 19 -15 43 -22 23 -7 54 -21
69 -32 16 -10 33 -16 39 -13 5 4 18 0 27 -8 16 -14 66 -38 105 -51 23 -7 22
-26 -2 -26 -19 0 -31 -18 -31 -46 0 -10 7 -13 25 -8 16 4 30 0 40 -10 9 -9 15
-17 13 -17 -2 -1 -42 -6 -90 -13 -86 -11 -146 -5 -159 16 -4 5 -53 9 -114 9
-91 -1 -106 1 -101 14 6 16 -29 19 -181 16 -51 -1 -80 3 -96 14 -14 9 -32 12
-42 9 -9 -4 -20 -2 -25 6 -6 9 -13 9 -28 1 -26 -14 -62 -14 -62 -1 0 6 -13 10
-30 10 -16 0 -29 -3 -29 -7 3 -19 -2 -27 -9 -16 -10 16 -37 18 -141 8 -75 -7
-84 -6 -78 8 6 17 -5 31 -16 21 -11 -11 -127 -12 -127 -2 0 6 -6 6 -15 -2 -12
-10 -16 -6 -24 22 l-9 33 -1 -32 c-1 -18 -5 -33 -10 -33 -5 0 -8 8 -7 17 1 23
-31 29 -54 8 -16 -15 -18 -15 -24 0 -3 9 -6 26 -7 38 0 21 -1 21 -8 2 -5 -11
-7 -23 -4 -27 8 -14 -70 -21 -90 -8 -17 10 -23 10 -34 -6 -12 -16 -15 -17 -23
-4 -7 10 -12 11 -17 4 -14 -18 -46 -26 -55 -12 -7 10 -11 10 -21 -2 -18 -23
-73 -43 -102 -38 -15 3 -25 1 -25 -6 0 -6 -9 -19 -19 -28 -19 -16 -20 -16 -26
2 -3 10 -12 23 -19 29 -11 9 -14 8 -12 -5 0 -9 -5 -19 -12 -21 -7 -3 -10 1 -6
10 7 18 -14 33 -28 19 -6 -6 -6 -12 1 -16 21 -13 11 -22 -26 -23 l-37 -1 24
19 25 19 -60 -6 c-33 -3 -69 -9 -80 -14 -11 -4 -28 -11 -38 -14 -9 -3 -16 -11
-15 -18 2 -7 -4 -13 -12 -13 -8 0 -20 -7 -27 -15 -11 -13 -12 -12 -13 7 0 23
-13 37 -24 26 -3 -3 -1 -12 6 -20 16 -20 2 -28 -17 -9 -9 9 -20 16 -25 16 -5
0 -15 7 -24 15 -13 14 -15 12 -13 -12 2 -24 -2 -28 -23 -28 -18 0 -26 6 -28
23 -3 17 -10 22 -32 22 -28 0 -29 -2 -20 -26 14 -37 13 -41 -16 -41 -15 0 -30
-7 -35 -14 -6 -11 -15 -7 -41 19 l-34 32 -27 -31 c-15 -17 -27 -26 -27 -20 0
6 -5 11 -11 11 -7 0 -9 -11 -5 -31 6 -30 5 -30 -29 -25 -26 5 -37 2 -41 -9 -4
-9 -19 -15 -35 -15 -23 0 -29 4 -29 23 -1 20 -2 20 -11 4 -9 -15 -13 -16 -27
-5 -13 11 -15 11 -10 -4 8 -21 -2 -31 -17 -18 -9 8 -14 6 -18 -5 -4 -8 -13
-12 -22 -9 -10 4 -15 0 -15 -12 -1 -13 -5 -10 -15 11 -13 29 -18 23 -17 -20 1
-17 0 -17 -4 -2 -3 9 -10 17 -15 17 -5 0 -9 7 -9 15 0 8 -4 15 -10 15 -5 0
-10 -7 -10 -15 0 -8 -4 -15 -10 -15 -5 0 -10 -19 -10 -41 0 -36 -2 -40 -15
-29 -12 10 -15 10 -15 -1 -1 -24 -30 23 -30 48 0 15 6 23 17 23 13 0 14 3 6
11 -21 21 -41 3 -37 -35 1 -22 -2 -34 -7 -30 -6 3 -21 -5 -34 -18 -14 -12 -34
-32 -46 -42 l-22 -19 6 36 c7 46 0 46 -35 5 -26 -32 -27 -32 -47 -14 -11 10
-18 23 -15 27 3 5 -1 9 -9 9 -10 0 -13 -7 -10 -19 4 -15 -1 -20 -19 -23 -38
-6 -68 3 -69 21 0 10 -2 12 -6 3 -8 -19 -60 -43 -106 -48 -22 -2 -45 -8 -51
-14 -18 -18 -28 -11 -22 15 5 18 2 25 -8 25 -7 0 -16 -9 -19 -20 -8 -32 -41
-24 -55 13 -12 30 -14 31 -26 14 -8 -10 -18 -17 -22 -16 -26 4 -43 -3 -49 -21
-4 -11 -11 -18 -16 -14 -5 3 -7 14 -4 25 4 11 2 19 -4 19 -6 0 -11 8 -11 18
-1 9 -7 2 -15 -17 -18 -41 -18 -42 0 -35 17 7 19 -4 6 -25 -8 -12 -12 -13 -26
-1 -13 11 -18 10 -30 -6 -14 -19 -14 -19 -15 1 0 16 -2 17 -9 6 -5 -8 -16 -11
-26 -8 -9 4 -13 12 -9 18 11 18 -58 2 -72 -16 -6 -8 -19 -15 -28 -15 -9 0 -19
-7 -22 -15 -4 -9 -14 -14 -23 -13 -9 2 -15 -3 -14 -9 2 -7 -2 -13 -7 -13 -6 0
-10 4 -10 8 0 5 -8 17 -18 28 -11 11 -22 26 -25 34 -4 12 -6 11 -6 -2 -1 -9 3
-20 9 -23 15 -10 12 -35 -5 -35 -10 0 -15 -10 -15 -30 0 -16 -4 -30 -10 -30
-5 0 -10 11 -10 24 0 14 -5 28 -10 31 -5 3 -10 1 -10 -4 0 -6 -18 -11 -39 -11
-29 0 -41 5 -44 17 -2 10 -2 3 0 -14 4 -32 -12 -45 -31 -26 -10 10 -46 11 -46
1 0 -7 15 -12 32 -9 5 0 8 -6 8 -14 0 -9 -6 -12 -15 -9 -8 4 -15 1 -15 -5 0
-19 -16 -12 -28 12 l-11 22 0 -24 c-1 -20 -3 -22 -17 -10 -9 7 -20 22 -25 34
-6 13 -7 4 -4 -30 4 -35 2 -46 -5 -35 -5 8 -10 22 -10 31 0 22 -26 44 -35 29
-4 -6 -2 -16 3 -23 13 -17 22 -57 12 -57 -5 0 -12 5 -16 11 -4 7 -9 7 -13 1
-3 -5 -17 -12 -31 -16 -18 -5 -21 -4 -10 3 22 14 15 93 -8 89 -21 -4 -28 -38
-12 -48 16 -10 4 -30 -18 -30 -18 0 -45 25 -55 51 -3 8 -6 -4 -7 -26 -1 -36
-2 -38 -12 -17 -13 25 -28 29 -28 6 0 -8 -5 -12 -11 -8 -17 10 -59 -17 -59
-38 0 -10 7 -18 15 -18 8 0 15 5 15 10 0 14 27 12 33 -2 4 -10 6 -10 6 0 1 10
5 10 21 0 17 -11 22 -10 29 1 6 9 11 10 15 2 11 -17 6922 -16 6929 1 4 10 6
10 6 1 1 -10 396 -13 1941 -13 l1940 0 0 2355 c0 1295 -4 2355 -8 2355 -4 0
-14 -6 -21 -13 -10 -10 -11 -9 -6 5 4 9 13 19 21 22 12 5 14 87 14 542 l0 536
-27 29 c-16 16 -31 29 -35 29 -12 0 -41 32 -56 60 -7 14 -38 38 -68 54 -31 16
-59 37 -62 45 -3 9 -14 22 -25 30 -10 7 -16 19 -13 26 3 8 -2 19 -10 25 -8 7
-14 25 -14 41 0 23 -19 48 -94 124 -52 52 -97 103 -100 113 -3 9 -14 22 -25
27 -127 68 -139 75 -137 92 1 12 -13 25 -40 38 -23 11 -48 25 -55 32 -8 6 -26
14 -41 18 -38 10 -52 29 -33 45 8 7 15 18 15 25 0 8 8 15 18 17 11 2 -4 15
-46 37 -50 27 -60 37 -51 47 6 8 22 14 35 14 27 0 32 17 9 26 -8 4 -15 16 -15
29 0 22 -28 55 -48 55 -6 0 -14 10 -17 23 -10 33 -38 87 -47 87 -4 0 -32 25
-63 55 -41 41 -55 63 -55 84 0 23 -8 31 -50 52 -27 13 -49 29 -50 35 0 5 -13
23 -30 39 -16 16 -30 37 -30 47 0 10 -15 27 -32 38 -18 11 -42 33 -53 50 -11
16 -25 30 -31 30 -7 0 -25 15 -42 34 -16 19 -41 42 -56 51 -18 12 -26 26 -26
45 0 33 -40 70 -76 70 -17 0 -24 6 -24 19 0 25 -59 121 -75 121 -18 0 -53 42
-57 70 -2 14 -11 26 -24 30 -33 8 -84 57 -84 79 0 12 -10 29 -21 39 -41 33
-49 44 -49 63 0 14 -9 21 -30 26 -39 7 -54 35 -59 109 -1 6 -21 24 -46 40 -31
19 -45 35 -45 50 0 13 -4 26 -10 29 -5 3 -10 15 -10 25 0 17 -33 37 -53 32 -5
-1 -6 6 -2 17 4 13 0 21 -12 25 -11 3 -26 29 -39 63 -19 55 -22 57 -69 70 -28
6 -51 17 -53 23 -2 5 -10 10 -18 10 -17 0 -17 5 -3 32 11 20 9 21 -20 15 -25
-5 -31 -3 -31 11 0 10 7 28 16 41 21 30 7 43 -33 32 -27 -8 -32 -6 -42 16 -11
23 -16 25 -51 19 -41 -6 -49 1 -28 22 8 8 9 18 0 36 -6 13 -8 33 -5 45 7 27
-5 26 -61 -1 -39 -19 -48 -20 -75 -8 -17 7 -31 16 -31 21 0 5 -9 18 -20 29
-17 17 -18 23 -8 40 19 30 4 34 -48 11 -26 -12 -56 -19 -66 -15 -21 6 -24 40
-6 79 14 32 3 42 -54 51 -35 6 -38 9 -38 39 0 34 -25 65 -53 65 -21 0 -32 19
-18 33 19 19 13 65 -10 77 -16 9 -20 19 -17 48 3 34 0 38 -32 49 -19 6 -49 12
-66 12 -18 1 -47 7 -65 15 l-34 14 28 11 c37 14 34 31 -5 32 -18 0 -27 3 -20
6 6 2 12 11 12 18 0 20 -63 65 -90 65 -29 0 -90 21 -90 31 0 4 5 11 11 14 7 5
5 15 -5 31 -19 27 -21 60 -5 70 6 3 9 17 6 30 -2 14 0 27 4 30 12 7 -20 54
-36 54 -17 0 -75 78 -91 121 -6 17 -45 29 -91 29 -14 0 -21 4 -18 10 3 6 14
10 24 10 26 0 42 23 46 62 3 38 -19 68 -50 68 -25 0 -65 34 -65 55 0 8 -11 22
-25 31 -14 9 -22 21 -19 26 8 12 -30 48 -50 48 -19 0 -52 73 -36 78 13 5 13
62 0 62 -5 0 -27 16 -49 35 -21 19 -49 35 -61 35 -19 0 -21 4 -15 23 14 45 11
61 -15 67 -20 5 -24 11 -22 32 2 15 -2 36 -8 48 -9 16 -15 18 -30 10 -28 -15
-60 -12 -60 5 0 8 -6 15 -14 15 -7 0 -19 7 -26 15 -18 21 4 45 41 45 36 0 75
36 83 78 5 29 3 32 -18 32 -44 0 -50 20 -43 149 6 97 4 121 -8 131 -11 9 -13
32 -9 113 2 56 7 121 10 143 6 38 4 44 -21 60 -26 17 -27 20 -23 93 6 89 -16
290 -37 341 -7 19 -21 60 -30 90 -10 30 -38 98 -65 150 -26 52 -51 106 -55
120 -7 26 -71 143 -133 246 -20 34 -66 95 -102 137 -36 41 -76 92 -90 112 -14
20 -53 72 -87 117 -35 44 -63 84 -63 88 0 5 -16 30 -36 56 -20 26 -42 63 -49
83 -7 20 -18 35 -25 33 -8 -2 -11 20 -9 75 1 46 -2 78 -8 80 -6 2 -23 -10 -39
-27 -16 -16 -33 -30 -38 -30 -9 0 -3 51 10 84 6 17 4 18 -19 12 -14 -3 -29 -1
-32 4 -10 16 -46 2 -76 -29 -79 -81 -178 -163 -271 -224 -92 -60 -248 -240
-305 -352 -9 -16 -26 -43 -39 -58 -13 -16 -24 -38 -24 -50 -1 -21 -39 -101
-40 -83 0 20 -29 -30 -30 -52 0 -17 -10 -27 -35 -38 -38 -16 -85 -19 -85 -5 0
4 25 34 55 65 30 31 55 60 55 64 0 5 10 19 21 31 12 13 23 35 25 50 2 14 10
43 19 63 25 61 17 276 -12 297 -8 6 -14 52 -17 136 -1 48 0 51 35 68 l36 17
-4 123 c-3 109 -21 197 -42 217 -23 21 -40 80 -23 80 11 0 44 69 37 79 -2 5 0
23 5 41 7 24 5 38 -6 55 -12 19 -13 36 -4 106 9 75 8 85 -9 103 -12 13 -21 43
-24 82 -6 58 -5 63 34 122 32 49 40 69 37 99 -3 34 1 41 34 65 37 27 65 86 54
113 -3 8 -1 15 4 15 6 0 10 12 10 26 0 23 -52 84 -72 84 -20 0 10 121 32 128
5 2 10 12 10 21 0 32 40 135 61 157 29 31 37 99 14 124 -11 12 -13 20 -6 20 7
0 6 9 -5 26 -23 34 -36 121 -23 147 16 28 12 125 -6 176 -8 24 -12 48 -8 54 3
5 1 7 -4 4 -6 -4 -13 10 -17 36 -9 56 -62 174 -93 205 -7 7 -16 18 -20 25 -21
32 -134 127 -151 127 -17 0 -19 -4 -12 -32z m-3550 -953 c0 -14 -4 -25 -10
-25 -5 0 -10 11 -10 25 0 14 5 25 10 25 6 0 10 -11 10 -25z m170 -141 c0 -14
-4 -23 -10 -19 -5 3 -10 15 -10 26 0 10 5 19 10 19 6 0 10 -12 10 -26z m350
-421 c0 -13 -4 -23 -9 -23 -12 0 -21 26 -21 58 1 26 1 26 15 8 8 -11 15 -30
15 -43z m3670 -1502 c0 -6 -4 -13 -10 -16 -5 -3 -10 1 -10 9 0 9 5 16 10 16 6
0 10 -4 10 -9z m246 -46 c3 -8 -1 -29 -10 -47 -15 -29 -15 -33 -1 -47 15 -15
17 -14 26 1 12 22 72 58 95 58 41 0 48 -15 30 -59 -21 -54 -20 -66 5 -68 24
-2 48 -30 49 -56 0 -27 15 -51 60 -95 38 -37 40 -43 39 -91 -2 -45 1 -54 29
-81 18 -17 32 -35 32 -40 0 -6 5 -10 10 -10 6 0 10 -6 10 -13 0 -8 21 -36 46
-63 49 -52 68 -88 59 -112 -3 -8 4 -25 16 -38 14 -15 20 -31 16 -44 -4 -16 -1
-20 11 -19 9 1 28 -3 42 -8 14 -6 34 -12 44 -14 26 -5 36 -45 32 -133 -3 -80
-22 -136 -47 -136 -9 0 -28 11 -43 25 -18 16 -38 25 -59 24 -18 0 -26 -3 -19
-6 17 -7 15 -30 -3 -36 -11 -5 -14 -27 -14 -102 0 -56 4 -95 10 -95 6 0 7 -5
3 -11 -4 -8 -9 -7 -15 2 -13 21 -40 -20 -34 -51 7 -34 0 -42 -73 -78 -75 -38
-138 -44 -179 -16 -15 10 -30 19 -33 19 -49 8 -60 32 -38 80 8 17 8 29 1 36
-12 12 48 79 71 79 9 0 16 5 16 11 0 7 -10 9 -25 5 -14 -4 -25 -2 -25 4 0 5 5
10 10 10 6 0 10 7 10 15 0 18 -1 18 -37 4 -59 -24 -79 -34 -121 -62 -36 -24
-43 -26 -48 -12 -4 9 0 23 8 33 7 9 20 30 28 46 8 16 28 37 43 45 53 30 82 60
70 72 -8 8 -21 4 -49 -15 -25 -17 -45 -24 -61 -20 -18 5 -23 2 -23 -12 0 -16
2 -17 10 -4 5 8 10 10 10 4 0 -5 -13 -23 -30 -39 -23 -22 -30 -25 -30 -12 0 8
4 18 10 22 5 3 7 12 3 21 -7 19 60 82 114 106 23 10 45 23 48 28 9 15 -33 12
-66 -5 -45 -24 -53 -9 -19 38 16 22 30 45 30 49 0 18 -16 12 -163 -58 -42 -20
-51 -17 -33 11 19 28 20 35 6 35 -6 0 -14 -8 -17 -17 -12 -31 -100 -116 -108
-104 -8 14 12 76 30 91 7 6 23 36 36 68 12 31 32 65 43 75 12 11 20 28 18 41
-2 12 9 40 24 61 24 35 54 112 54 137 0 10 -50 11 -50 1 -1 -5 -27 -36 -58
-71 -55 -60 -69 -68 -129 -71 -7 -1 -13 -8 -13 -16 0 -8 -4 -15 -9 -15 -24 0
13 81 61 132 7 7 25 29 39 48 15 19 36 46 48 59 49 55 5 56 -50 1 -52 -52 -72
-53 -63 -2 3 20 12 47 20 59 16 25 18 53 5 53 -5 0 -21 -15 -35 -32 -31 -40
-33 -27 -5 31 18 39 43 66 158 175 54 51 55 71 1 62 -46 -7 -49 -2 -18 31 12
13 16 23 10 23 -24 0 -12 40 17 54 16 9 31 22 34 31 4 9 19 15 36 15 16 0 33
5 36 10 9 15 25 12 31 -5z m-242 -209 c-31 -27 -44 -32 -44 -17 0 10 62 52 68
46 3 -2 -9 -15 -24 -29z m37 -624 c-15 -27 -71 -77 -71 -63 0 19 60 92 71 85
5 -3 5 -12 0 -22z m-2206 -632 c3 -5 1 -10 -4 -10 -6 0 -11 5 -11 10 0 6 2 10
4 10 3 0 8 -4 11 -10z m2785 -86 c0 -8 -5 -12 -10 -9 -6 4 -8 11 -5 16 9 14
15 11 15 -7z m544 -11 c9 -29 1 -65 -23 -105 -29 -48 -47 -53 -77 -23 -35 35
-32 45 23 83 17 12 35 31 38 42 8 25 32 26 39 3z m-604 -73 c0 -5 -4 -10 -10
-10 -5 0 -10 5 -10 10 0 6 5 10 10 10 6 0 10 -4 10 -10z m-2290 -132 c-15 -42
-41 -181 -34 -187 3 -3 13 0 24 7 18 11 18 10 6 -25 -7 -20 -21 -42 -32 -47
-10 -6 -24 -18 -31 -26 -10 -13 -12 -10 -13 18 0 18 5 42 10 53 7 12 7 25 1
37 -10 19 6 74 48 165 25 54 40 57 21 5z m104 5 c-8 -30 -45 -92 -56 -93 -21
-1 -5 53 25 84 40 42 39 42 31 9z m2182 -19 c9 3 12 2 9 -5 -4 -6 -13 -8 -21
-5 -7 3 -16 1 -19 -5 -4 -5 -11 -6 -18 -2 -7 4 -4 9 9 14 17 7 17 8 -3 8 -13
1 -23 7 -23 15 0 8 10 16 23 18 17 2 23 -3 25 -20 2 -16 8 -22 18 -18z m600 1
c-3 -9 1 -18 9 -21 8 -4 15 -12 15 -20 0 -17 -3 -17 -45 0 -39 17 -44 30 -17
45 26 16 45 13 38 -4z m-3398 -63 c4 -25 -13 -30 -22 -6 -9 25 -7 36 7 32 6
-3 13 -14 15 -26z m-681 -29 c-16 -16 -17 -16 -17 3 0 26 11 37 24 24 7 -7 5
-16 -7 -27z m1223 -30 c-11 -17 -11 -17 -6 0 3 10 6 24 7 30 0 9 2 9 5 0 3 -7
0 -20 -6 -30z m104 15 c-3 -13 -16 -42 -27 -66 -22 -48 -17 -64 13 -37 26 23
30 18 21 -25 -7 -32 -10 -35 -39 -32 -27 3 -35 -2 -50 -27 -19 -34 -37 -40
-46 -15 -10 26 -7 44 7 44 14 0 57 80 57 106 0 30 30 74 51 74 17 0 19 -4 13
-22z m685 -25 c-6 -7 -17 -13 -24 -13 -8 0 -15 -3 -17 -7 -7 -17 -70 -63 -79
-57 -20 12 47 94 77 94 7 0 14 7 14 17 0 14 2 14 20 -2 15 -14 17 -21 9 -32z
m-2029 7 c0 -5 -4 -10 -10 -10 -5 0 -10 5 -10 10 0 6 5 10 10 10 6 0 10 -4 10
-10z m779 -4 c8 -10 8 -16 -3 -25 -11 -9 -15 -8 -20 5 -13 34 1 47 23 20z
m-69 -12 c0 -8 -4 -12 -10 -9 -5 3 -10 10 -10 16 0 5 5 9 10 9 6 0 10 -7 10
-16z m1090 -38 c-25 -25 -50 -45 -55 -46 -6 0 -16 -9 -23 -20 -6 -11 -31 -32
-55 -46 -23 -15 -45 -33 -50 -40 -4 -7 -24 -16 -44 -20 -19 -4 -44 -15 -54
-25 -19 -19 -43 -26 -37 -10 6 15 62 83 104 126 22 23 46 50 52 61 6 10 14 15
18 11 5 -4 0 -23 -11 -42 -10 -20 -16 -37 -13 -40 7 -8 87 58 87 72 1 21 57
58 92 61 l34 3 -45 -45z m-1220 3 c0 -6 -4 -7 -10 -4 -5 3 -10 11 -10 16 0 6
5 7 10 4 6 -3 10 -11 10 -16z m-355 -13 c35 -28 31 -36 -23 -43 -43 -6 -55 7
-45 46 7 28 31 26 68 -3z m620 -6 c21 -40 20 -146 -1 -168 -15 -15 -19 -15
-46 1 -37 21 -48 21 -48 0 0 -24 30 -53 55 -53 31 0 65 -36 65 -68 -1 -27 -1
-27 -18 -6 -10 11 -23 19 -30 16 -6 -2 -12 1 -12 6 0 5 -13 15 -29 22 -16 6
-41 25 -57 41 -26 28 -27 29 -6 29 15 0 20 5 16 15 -4 8 -1 15 5 15 6 0 11 5
11 11 0 6 -7 9 -14 6 -10 -4 -13 -1 -9 9 3 7 9 14 14 14 5 0 9 13 9 30 0 19 7
33 20 40 13 7 20 21 20 40 0 41 34 41 55 0z m2305 -10 c-20 -13 -57 -13 -44
-1 10 10 46 19 54 14 2 -2 -2 -8 -10 -13z m-1626 -45 c-9 -36 -118 -144 -122
-122 -2 9 -9 14 -18 10 -8 -3 -14 -1 -14 5 0 21 54 74 96 93 23 11 45 28 48
36 10 25 18 8 10 -22z m-924 -26 c0 -5 -7 -6 -15 -3 -8 4 -15 13 -15 21 0 13
3 13 15 3 8 -7 15 -16 15 -21z m120 11 c0 -11 -4 -20 -10 -20 -5 0 -10 9 -10
20 0 11 5 20 10 20 6 0 10 -9 10 -20z m-568 -7 c22 -20 23 -29 3 -37 -17 -6
-45 19 -45 40 0 19 19 18 42 -3z m268 -33 c11 -11 20 -27 20 -36 0 -13 -5 -12
-30 6 -29 21 -41 50 -20 50 6 0 19 -9 30 -20z m2090 -160 c-37 -28 -50 -24
-15 5 16 13 32 22 34 19 3 -3 -5 -14 -19 -24z m90 0 c0 -5 -4 -10 -10 -10 -5
0 -10 5 -10 10 0 6 5 10 10 10 6 0 10 -4 10 -10z m340 -9 c0 -5 -24 -26 -52
-47 -71 -51 -119 -56 -65 -7 48 45 117 77 117 54z m-486 -16 c-8 -19 35 -29
84 -20 28 5 34 4 25 -5 -25 -26 -112 -71 -144 -75 -15 -2 -46 -15 -67 -29 -22
-14 -53 -28 -68 -32 -23 -6 -26 -4 -21 10 7 19 3 20 -23 6 -11 -6 -17 -16 -14
-23 3 -8 -6 -19 -21 -25 -33 -15 -35 -15 -35 2 0 17 62 73 99 89 42 19 124 73
145 96 22 24 48 28 40 6z m561 -1 c-29 -22 -55 -36 -55 -28 0 11 45 43 60 43
11 0 10 -4 -5 -15z m-295 -3 c0 -10 -30 -24 -37 -17 -3 3 -2 9 2 15 8 13 35
15 35 2z m-625 -21 c-3 -5 -11 -10 -16 -10 -6 0 -7 5 -4 10 3 6 11 10 16 10 6
0 7 -4 4 -10z m535 1 c0 -12 -39 -25 -48 -16 -7 7 17 25 36 25 6 0 12 -4 12
-9z m-5 -72 c-5 -15 -2 -22 14 -26 38 -10 20 -38 -24 -38 -16 0 -43 -4 -59 -8
-28 -8 -28 -7 12 25 22 18 41 41 41 51 1 9 6 17 12 17 6 0 8 -9 4 -21z m-195
-19 c0 -5 -4 -10 -10 -10 -5 0 -10 5 -10 10 0 6 5 10 10 10 6 0 10 -4 10 -10z
m617 4 c31 -9 23 -17 -51 -53 -36 -17 -69 -37 -73 -45 -20 -34 -183 -85 -183
-57 0 15 54 41 84 41 14 0 28 5 31 10 3 6 15 10 26 10 13 0 18 4 13 12 -5 8
-2 9 9 5 11 -4 17 -1 17 8 0 9 -10 15 -25 15 -27 0 -34 20 -12 38 19 16 125
26 164 16z m-2707 -58 c16 -20 11 -20 -29 0 -17 8 -29 20 -25 25 6 11 35 -3
54 -25z m3009 25 c8 -5 9 -11 3 -15 -5 -3 -15 1 -22 9 -14 16 -3 20 19 6z
m1011 -26 c0 -8 -7 -15 -16 -15 -14 0 -14 3 -4 15 7 8 14 15 16 15 2 0 4 -7 4
-15z m-1860 -16 c0 -11 -4 -17 -10 -14 -5 3 -10 13 -10 21 0 8 5 14 10 14 6 0
10 -9 10 -21z m140 -24 c-14 -17 -56 -20 -65 -5 -4 6 -16 3 -32 -10 -30 -23
-55 -26 -47 -6 6 15 39 27 93 31 18 2 39 9 45 15 16 16 21 -7 6 -25z m-330 15
c0 -5 -5 -10 -11 -10 -5 0 -7 5 -4 10 3 6 8 10 11 10 2 0 4 -4 4 -10z m-1827
-38 c19 -17 22 -32 7 -32 -11 0 -50 40 -50 52 0 10 16 2 43 -20z m331 2 c3 -8
2 -12 -4 -9 -6 3 -10 10 -10 16 0 14 7 11 14 -7z m1346 6 c0 -5 -4 -10 -9 -10
-6 0 -22 -11 -37 -25 -15 -14 -30 -23 -33 -19 -6 6 58 63 72 64 4 0 7 -4 7
-10z m-1763 -32 c-3 -8 -6 -5 -6 6 -1 11 2 17 5 13 3 -3 4 -12 1 -19z m473
-32 c-7 -7 -10 1 -9 25 0 32 1 33 10 10 6 -16 6 -28 -1 -35z m2270 47 c0 -12
-33 -43 -46 -43 -8 0 -5 9 9 24 22 24 37 32 37 19z m-2705 -53 c14 -16 15 -20
4 -20 -16 0 -39 19 -39 32 0 14 16 9 35 -12z m2435 1 c0 -14 -47 -41 -83 -48
-29 -5 -31 -4 -17 10 31 33 100 59 100 38z m315 -1 c3 -5 -1 -10 -9 -10 -9 0
-16 5 -16 10 0 6 4 10 9 10 6 0 13 -4 16 -10z m-115 -30 c-8 -5 -24 -10 -35
-10 -17 0 -17 2 -5 10 8 5 24 10 35 10 17 0 17 -2 5 -10z m882 -37 c0 -4 4
-18 9 -31 7 -17 5 -24 -7 -29 -24 -9 3 -23 46 -23 62 0 79 -9 82 -44 2 -24 8
-32 26 -34 15 -2 22 -9 20 -20 -5 -26 -83 -21 -109 6 -11 12 -25 22 -32 22
-14 0 -113 -25 -140 -35 -15 -6 -16 -4 -8 19 7 16 7 27 1 31 -18 11 -10 25 13
24 12 0 16 -3 10 -6 -18 -7 -16 -23 2 -23 17 0 20 25 5 35 -14 9 -3 25 13 20
17 -7 41 11 33 24 -4 6 -16 11 -26 11 -29 0 -32 16 -5 28 14 7 25 16 25 21 0
5 8 11 18 13 19 5 24 3 24 -9z m-127 -43 c-4 -6 -11 -8 -16 -5 -5 4 -9 1 -9
-4 0 -6 -7 -11 -15 -11 -21 0 -19 18 3 23 31 8 43 7 37 -3z m-810 -50 c-3 -5
-13 -10 -21 -10 -8 0 -12 5 -9 10 3 6 13 10 21 10 8 0 12 -4 9 -10z m-93 -66
c-11 -7 -46 -17 -78 -23 -32 -5 -71 -12 -87 -16 -21 -6 -26 -4 -22 7 7 16 52
35 110 44 22 3 41 7 43 9 1 1 14 0 28 -3 24 -4 24 -5 6 -18z m438 -14 c12 -8
9 -10 -12 -10 -16 0 -28 5 -28 10 0 13 20 13 40 0z m940 0 c-20 -13 -43 -13
-35 0 3 6 16 10 28 10 18 0 19 -2 7 -10z m-385 -20 c-3 -5 -13 -10 -21 -10 -8
0 -14 5 -14 10 0 6 9 10 21 10 11 0 17 -4 14 -10z m-970 -20 c7 -11 -46 -40
-75 -40 -23 0 -24 4 -10 31 11 20 74 28 85 9z m1405 -10 c0 -5 -7 -10 -16 -10
-8 0 -12 5 -9 10 3 6 10 10 16 10 5 0 9 -4 9 -10z m-2470 -20 c0 -5 -5 -10
-11 -10 -5 0 -7 5 -4 10 3 6 8 10 11 10 2 0 4 -4 4 -10z m960 -15 c0 -10 -10
-15 -32 -15 -31 1 -32 1 -14 15 25 19 46 19 46 0z m150 5 c-20 -13 -33 -13
-25 0 3 6 14 10 23 10 15 0 15 -2 2 -10z m-65 -10 c3 -5 -1 -10 -9 -10 -9 0
-16 5 -16 10 0 6 4 10 9 10 6 0 13 -4 16 -10z m-2700 -14 c-20 -14 -35 -12
-35 5 0 5 12 9 27 9 26 0 26 -1 8 -14z m140 -15 c3 -5 1 -12 -5 -16 -6 -4 -8
-11 -5 -16 4 -5 -11 -9 -33 -9 -23 0 -45 -6 -52 -15 -7 -8 -21 -15 -31 -15
-16 0 -17 3 -7 25 14 32 119 68 133 46z m3225 -30 c0 -5 -9 -11 -20 -14 -13
-3 -20 0 -20 9 0 8 9 14 20 14 11 0 20 -4 20 -9z m-950 -51 c0 -5 -9 -10 -21
-10 -11 0 -17 5 -14 10 3 6 13 10 21 10 8 0 14 -4 14 -10z m535 0 c17 -8 16
-8 -7 -7 -16 1 -28 5 -28 9 0 10 9 9 35 -2z m-65 -10 c0 -5 -5 -10 -11 -10 -5
0 -7 5 -4 10 3 6 8 10 11 10 2 0 4 -4 4 -10z m-370 -19 c0 -15 -10 -19 -91
-35 -90 -19 -89 -19 -89 -2 0 17 23 26 95 36 73 11 85 11 85 1z m-3592 -19 c3
-9 -3 -13 -19 -10 -12 1 -24 9 -27 16 -3 9 3 13 19 10 12 -1 24 -9 27 -16z
m3247 8 c-3 -5 -11 -10 -16 -10 -6 0 -7 5 -4 10 3 6 11 10 16 10 6 0 7 -4 4
-10z m355 -44 c0 -3 -4 -8 -10 -11 -5 -3 -10 -1 -10 4 0 6 5 11 10 11 6 0 10
-2 10 -4z m-359 -48 c-34 -22 -121 -41 -121 -27 0 12 17 20 69 34 74 21 92 18
52 -7z m229 3 c0 -5 -24 -13 -52 -19 -29 -5 -61 -13 -70 -17 -12 -5 -18 -3
-18 7 0 9 19 18 53 25 71 14 87 14 87 4z m-2305 -39 c12 -26 22 -28 46 -6 9 8
19 12 22 7 8 -12 -57 -80 -72 -75 -13 4 -51 -31 -69 -63 -9 -16 -10 -13 -7 22
3 23 5 45 6 50 5 28 -2 36 -15 17 -8 -10 -18 -16 -22 -12 -9 10 15 38 32 38 7
0 21 11 31 25 21 28 34 27 48 -3z m401 -19 c-10 -10 -19 5 -10 18 6 11 8 11
12 0 2 -7 1 -15 -2 -18z m1729 -4 c0 -7 -9 -15 -20 -18 -16 -3 -17 -1 -7 11 6
8 8 18 4 23 -4 4 0 6 8 3 8 -3 15 -11 15 -19z m-345 -21 c0 -7 -21 -23 -46
-36 -54 -27 -56 -10 -4 26 37 25 50 28 50 10z m-1710 -37 c0 -21 -13 -41 -26
-41 -17 0 -18 22 -2 38 14 14 28 16 28 3z m1690 -31 c0 -6 -7 -13 -15 -16 -22
-9 -19 -44 4 -44 11 0 23 -5 26 -10 4 -6 10 -8 15 -5 4 3 11 -3 14 -12 9 -23
-19 -43 -58 -43 -17 0 -42 -9 -56 -20 -40 -31 -72 -21 -34 11 21 18 44 64 44
90 0 12 7 31 17 41 18 20 43 24 43 8z m2548 -12 c-6 -16 -55 -34 -65 -25 -9
10 27 36 50 37 11 0 17 -5 15 -12z m-2464 -149 c-7 -12 -66 -39 -84 -39 -22 0
-8 22 23 35 39 17 71 19 61 4z m-4084 -15 c0 -8 -4 -12 -10 -9 -5 3 -10 10
-10 16 0 5 5 9 10 9 6 0 10 -7 10 -16z m4146 -35 c9 -15 -14 -29 -48 -29 -15
0 -30 -5 -34 -12 -5 -8 -11 -6 -20 6 -8 11 -14 13 -19 7 -3 -6 -11 -11 -16
-11 -6 0 -3 7 6 16 27 28 118 43 131 23z m-145 -73 c-23 -24 -78 -40 -87 -24
-3 4 4 8 16 8 11 0 28 9 37 20 10 11 26 20 37 20 18 0 18 -1 -3 -24z m29 -107
c0 -23 -75 -49 -142 -49 -52 0 -56 2 -60 25 -7 35 7 40 111 40 77 0 91 -2 91
-16z m6 -155 c-20 -14 -86 -20 -72 -6 10 9 80 30 86 24 3 -2 -4 -10 -14 -18z
m-53 -80 c65 -22 62 -45 -6 -45 -17 -1 -44 -5 -60 -11 -22 -9 -31 -7 -46 6
-19 17 -19 18 -1 36 10 10 29 20 42 23 13 2 23 5 24 6 0 0 21 -6 47 -15z
m-2173 -114 c0 -5 -5 -10 -11 -10 -5 0 -7 5 -4 10 3 6 8 10 11 10 2 0 4 -4 4
-10z m-30 -35 c-7 -8 -17 -15 -22 -15 -6 0 -5 7 2 15 7 8 17 15 22 15 6 0 5
-7 -2 -15z m137 -1 c3 -8 -1 -23 -10 -31 -14 -14 -17 -14 -31 0 -9 9 -16 23
-16 31 0 21 49 21 57 0z m73 -113 c0 -5 -9 -11 -21 -14 -16 -4 -18 -3 -8 9 13
16 29 19 29 5z m1780 -10 c0 -5 -9 -7 -20 -4 -11 3 -20 7 -20 9 0 2 9 4 20 4
11 0 20 -4 20 -9z m50 -42 c0 -6 -4 -7 -10 -4 -5 3 -10 11 -10 16 0 6 5 7 10
4 6 -3 10 -11 10 -16z m-1772 -31 c-2 -6 -10 -14 -16 -16 -7 -2 -10 2 -6 12 7
18 28 22 22 4z m-47 -61 c-8 -8 -11 -7 -11 4 0 20 13 34 18 19 3 -7 -1 -17 -7
-23z m28 -88 c-27 -17 -41 -9 -18 10 14 11 26 15 28 9 2 -6 -3 -14 -10 -19z
m3821 7 c0 -28 -12 -46 -31 -46 -21 0 -24 12 -9 41 12 22 40 26 40 5z m-2480
-21 c16 -19 0 -19 -26 0 -16 12 -16 14 -3 15 9 0 22 -7 29 -15z m2630 -50 c-7
-8 -16 -15 -21 -15 -5 0 -6 7 -3 15 4 8 13 15 21 15 13 0 13 -3 3 -15z m-167
-40 c-3 -9 -8 -14 -10 -11 -3 3 -2 9 2 15 9 16 15 13 8 -4z m1139 -135 c-39
-24 -42 -24 -42 -6 0 17 15 24 50 25 24 1 24 0 -8 -19z m124 -15 c16 -8 36
-15 46 -15 11 0 15 -6 11 -20 -6 -23 -70 -46 -155 -56 -32 -3 -58 -11 -58 -16
0 -29 -93 -69 -113 -48 -9 8 -8 14 7 22 10 6 26 18 35 27 10 10 25 20 34 24 9
3 17 11 17 17 0 8 -6 8 -20 0 -11 -6 -20 -7 -20 -2 0 4 16 14 35 21 19 7 35
19 35 27 0 8 3 14 8 15 35 3 65 9 70 13 10 10 39 6 68 -9z m107 -114 c4 0 7
-9 7 -19 0 -15 6 -17 35 -14 41 5 46 -10 9 -26 -20 -10 -24 -17 -18 -35 4 -12
11 -23 15 -25 19 -7 8 -22 -17 -22 -16 0 -23 4 -18 12 5 8 0 9 -14 6 -19 -5
-22 -2 -22 23 0 28 -2 29 -45 29 -26 0 -45 5 -45 11 0 6 -9 9 -20 6 -16 -4
-18 -2 -10 13 20 37 37 46 86 44 27 -1 52 -2 57 -3z m-833 -510 c0 -5 -12 -19
-27 -31 -34 -27 -45 -8 -11 20 25 21 38 25 38 11z m1955 -451 c-3 -5 -12 -7
-20 -3 -21 7 -19 13 6 13 11 0 18 -4 14 -10z m665 -55 c10 3 21 1 25 -5 3 -5
19 -10 35 -10 31 0 94 -46 84 -61 -6 -10 -117 -13 -127 -3 -3 4 -2 14 3 24 11
20 -13 34 -75 46 -24 4 -32 9 -24 14 7 5 23 4 37 -1 14 -5 33 -7 42 -4z
m-1327 -22 c-13 -2 -33 -2 -45 0 -13 2 -3 4 22 4 25 0 35 -2 23 -4z m-43 -43
c25 -8 76 -22 95 -26 6 -1 29 -2 53 -3 24 0 41 -5 38 -10 -3 -5 -26 -6 -50 -4
-25 3 -56 3 -70 -1 -27 -7 -35 -30 -13 -40 6 -3 -26 -4 -73 -1 -47 2 -94 4
-104 4 -35 1 18 41 54 41 42 0 34 23 -10 30 -18 3 -35 11 -38 17 -4 14 70 9
118 -7z m995 -20 c4 -6 -6 -10 -22 -9 -25 0 -26 1 -8 9 11 5 21 9 22 9 1 1 5
-3 8 -9z m165 -14 c0 -9 -30 -14 -35 -6 -4 6 3 10 14 10 12 0 21 -2 21 -4z
m438 -22 c12 -4 22 -13 22 -22 0 -12 -3 -13 -12 -4 -7 7 -20 12 -30 12 -10 0
-18 5 -18 10 0 11 6 12 38 4z m-1523 -54 c3 -5 -3 -10 -14 -10 -12 0 -21 5
-21 10 0 6 6 10 14 10 8 0 18 -4 21 -10z m45 -36 c0 -2 -9 -4 -21 -4 -11 0
-18 4 -14 10 5 8 35 3 35 -6z m10 -214 c11 -7 7 -10 -17 -10 -17 0 -35 5 -38
10 -8 13 35 13 55 0z m295 -360 c3 -6 -1 -7 -9 -4 -18 7 -21 14 -7 14 6 0 13
-4 16 -10z m1715 -215 c-7 -8 -16 -15 -21 -15 -15 0 -10 22 9 43 15 17 17 17
20 3 2 -9 -2 -23 -8 -31z m-125 -105 c-27 -27 -51 -47 -54 -44 -6 6 80 92 94
93 5 1 -13 -21 -40 -49z m-72 -75 c-3 -9 -8 -14 -10 -11 -3 3 -2 9 2 15 9 16
15 13 8 -4z m-33 -40 c-7 -9 -15 -13 -18 -10 -3 2 1 11 8 20 7 9 15 13 18 10
3 -2 -1 -11 -8 -20z m-9687 -192 c-7 -2 -21 -2 -30 0 -10 3 -4 5 12 5 17 0 24
-2 18 -5z m-1126 -299 c-3 -3 -12 -4 -19 -1 -8 3 -5 6 6 6 11 1 17 -2 13 -5z
m36 -41 c-7 -2 -21 -2 -30 0 -10 3 -4 5 12 5 17 0 24 -2 18 -5z m297 -13 c0
-5 -4 -10 -10 -10 -5 0 -10 5 -10 10 0 6 5 10 10 10 6 0 10 -4 10 -10z m-220
-37 c0 -5 -4 -15 -10 -23 -11 -18 -25 -7 -17 15 6 15 27 21 27 8z m840 -789
c0 -8 -5 -12 -10 -9 -6 4 -8 11 -5 16 9 14 15 11 15 -7z m192 -29 c3 -13 1
-22 -3 -19 -9 5 -13 44 -5 44 2 0 6 -11 8 -25z m-357 -5 c3 -5 1 -10 -4 -10
-6 0 -11 5 -11 10 0 6 2 10 4 10 3 0 8 -4 11 -10z m325 0 c0 -5 -5 -10 -11
-10 -5 0 -7 5 -4 10 3 6 8 10 11 10 2 0 4 -4 4 -10z m8866 -26 c-11 -7 -22
-12 -25 -9 -2 3 4 12 15 19 10 8 21 12 24 9 3 -2 -4 -11 -14 -19z m-9259 -6
c-3 -8 -6 -5 -6 6 -1 11 2 17 5 13 3 -3 4 -12 1 -19z m680 -4 c-3 -3 -12 -4
-19 -1 -8 3 -5 6 6 6 11 1 17 -2 13 -5z m-965 -154 c3 -17 1 -33 -4 -36 -4 -3
-8 11 -8 30 0 44 6 47 12 6z m-105 -132 c-3 -8 -6 -5 -6 6 -1 11 2 17 5 13 3
-3 4 -12 1 -19z m-70 -80 c-2 -13 -4 -3 -4 22 0 25 2 35 4 23 2 -13 2 -33 0
-45z m-150 -120 c-3 -7 -5 -2 -5 12 0 14 2 19 5 13 2 -7 2 -19 0 -25z m68 -35
c-1 -21 -3 -46 -4 -55 -1 -10 -6 -18 -12 -18 -6 0 -8 8 -6 18 3 9 8 34 12 55
3 20 8 37 10 37 2 0 2 -17 0 -37z m-38 -5 c-3 -8 -6 -5 -6 6 -1 11 2 17 5 13
3 -3 4 -12 1 -19z m-150 -80 c-3 -8 -6 -5 -6 6 -1 11 2 17 5 13 3 -3 4 -12 1
-19z m-7 -78 c0 -5 -5 -10 -11 -10 -5 0 -7 5 -4 10 3 6 8 10 11 10 2 0 4 -4 4
-10z m-78 -50 c-4 -43 -22 -66 -22 -28 0 30 11 68 19 68 4 0 5 -18 3 -40z
m-135 -97 c-3 -10 -5 -4 -5 12 0 17 2 24 5 18 2 -7 2 -21 0 -30z m39 -21 c-11
-10 -15 4 -8 28 l7 25 3 -23 c2 -13 1 -26 -2 -30z m44 32 c0 -19 -33 -115 -38
-110 -8 8 19 116 30 116 4 0 8 -3 8 -6z m-68 -116 c-7 -7 -12 -8 -12 -2 0 14
12 26 19 19 2 -3 -1 -11 -7 -17z m-142 -155 c-11 -17 -11 -17 -6 0 3 10 7 28
7 40 2 22 2 22 6 0 2 -12 -1 -30 -7 -40z m-43 -25 c-3 -8 -6 -5 -6 6 -1 11 2
17 5 13 3 -3 4 -12 1 -19z m-40 -30 c-3 -7 -5 -2 -5 12 0 14 2 19 5 13 2 -7 2
-19 0 -25z m-31 -186 c-11 -10 -15 4 -8 28 l7 25 3 -23 c2 -13 1 -26 -2 -30z
m34 11 c-1 -28 -3 -34 -10 -22 -8 14 -3 59 6 59 2 0 4 -17 4 -37z m-100 -3 c0
-5 -4 -10 -10 -10 -5 0 -10 5 -10 10 0 6 5 10 10 10 6 0 10 -4 10 -10z m4576
-1047 c-10 -10 -19 5 -10 18 6 11 8 11 12 0 2 -7 1 -15 -2 -18z m-522 -71 l27
-21 -36 -7 c-23 -4 -41 -2 -48 5 -6 6 -21 11 -34 11 -16 0 -23 6 -23 19 0 17
6 20 44 17 26 -1 54 -11 70 -24z m3676 -37 c0 -8 -61 -37 -67 -32 -3 3 8 12
24 21 29 16 43 19 43 11z m338 -260 c-3 -3 -9 2 -12 12 -6 14 -5 15 5 6 7 -7
10 -15 7 -18z m-3178 -9 c0 -16 -18 -31 -27 -22 -8 8 5 36 17 36 5 0 10 -6 10
-14z m140 -226 c0 -5 -4 -10 -10 -10 -5 0 -10 5 -10 10 0 6 5 10 10 10 6 0 10
-4 10 -10z m2304 -139 c-2 -3 -12 3 -22 13 -16 17 -16 18 5 5 12 -7 20 -15 17
-18z m97 12 c13 -16 12 -17 -3 -4 -10 7 -18 15 -18 17 0 8 8 3 21 -13z m-2411
-163 c0 -5 -4 -10 -9 -10 -6 0 -13 5 -16 10 -3 6 1 10 9 10 9 0 16 -4 16 -10z
m2315 -70 c3 -5 2 -10 -4 -10 -5 0 -13 5 -16 10 -3 6 -2 10 4 10 5 0 13 -4 16
-10z m-2640 -350 c3 -5 1 -10 -4 -10 -6 0 -11 5 -11 10 0 6 2 10 4 10 3 0 8
-4 11 -10z m1065 -45 c0 -19 -5 -19 -24 1 -23 22 -20 37 4 24 11 -6 20 -17 20
-25z m-320 -9 c0 -3 -4 -8 -10 -11 -5 -3 -10 -1 -10 4 0 6 5 11 10 11 6 0 10
-2 10 -4z m-1760 -27 c0 -6 -4 -7 -10 -4 -5 3 -10 11 -10 16 0 6 5 7 10 4 6
-3 10 -11 10 -16z m-535 -48 c-3 -6 -14 -11 -23 -11 -15 1 -15 2 2 15 21 16
32 13 21 -4z m-888 -253 c-3 -8 -6 -5 -6 6 -1 11 2 17 5 13 3 -3 4 -12 1 -19z
m-457 -18 c0 -10 -4 -22 -10 -25 -6 -4 -10 7 -10 25 0 18 4 29 10 25 6 -3 10
-15 10 -25z m-95 -50 c-3 -5 -10 -10 -16 -10 -5 0 -9 5 -9 10 0 6 7 10 16 10
8 0 12 -4 9 -10z m-158 -82 c-3 -8 -6 -5 -6 6 -1 11 2 17 5 13 3 -3 4 -12 1
-19z m6428 2 c3 -5 2 -10 -4 -10 -5 0 -13 5 -16 10 -3 6 -2 10 4 10 5 0 13 -4
16 -10z m-6815 -60 c0 -5 -4 -10 -10 -10 -5 0 -10 5 -10 10 0 6 5 10 10 10 6
0 10 -4 10 -10z"/>
<path d="M6876 12005 c-11 -30 -6 -40 11 -22 12 12 14 20 6 28 -7 7 -12 6 -17
-6z"/>
<path d="M7412 11793 c5 -25 28 -28 28 -4 0 12 -6 21 -16 21 -9 0 -14 -7 -12
-17z"/>
<path d="M7115 11779 c-11 -17 1 -21 15 -4 8 9 8 15 2 15 -6 0 -14 -5 -17 -11z"/>
<path d="M2800 14600 c0 -13 5 -20 13 -17 6 2 12 10 12 17 0 7 -6 15 -12 18
-8 2 -13 -5 -13 -18z"/>
<path d="M3121 14574 c0 -11 3 -14 6 -6 3 7 2 16 -1 19 -3 4 -6 -2 -5 -13z"/>
<path d="M2876 13227 c-7 -27 -5 -28 17 -7 15 15 15 18 3 23 -9 4 -16 -2 -20
-16z"/>
<path d="M3200 12950 c0 -5 5 -10 10 -10 6 0 10 5 10 10 0 6 -4 10 -10 10 -5
0 -10 -4 -10 -10z"/>
<path d="M5514 12943 c-3 -10 -14 -40 -24 -68 -11 -27 -22 -62 -26 -78 -7 -29
-24 -47 -24 -26 0 27 -20 -8 -25 -45 -10 -63 -1 -83 40 -84 19 -1 35 3 35 9 0
6 6 9 12 7 21 -7 47 25 62 77 13 42 13 54 -1 104 -8 31 -18 68 -20 84 -6 34
-21 44 -29 20z"/>
<path d="M2760 12310 c0 -5 5 -10 10 -10 6 0 10 5 10 10 0 6 -4 10 -10 10 -5
0 -10 -4 -10 -10z"/>
<path d="M104 11641 c3 -5 -1 -11 -9 -15 -8 -3 -15 -1 -15 5 0 6 -7 6 -20 -1
-12 -6 -30 -8 -40 -5 -19 6 -20 1 -20 -189 l0 -196 24 0 c27 0 90 -25 126 -50
14 -9 54 -30 90 -45 36 -15 101 -45 145 -66 44 -21 92 -41 108 -45 15 -3 29
-10 32 -14 3 -4 35 -22 72 -39 38 -18 75 -36 83 -41 8 -5 43 -23 77 -40 89
-44 188 -143 203 -200 6 -25 17 -61 25 -80 l13 -35 13 30 c31 76 -12 213 -96
304 -101 110 -142 151 -150 151 -10 0 -155 118 -171 139 -6 8 -18 11 -28 8
-13 -5 -18 1 -23 24 -4 20 -10 28 -19 25 -7 -3 -17 0 -21 7 -14 21 -72 57 -93
57 -13 0 -20 7 -20 18 0 10 -11 29 -25 42 -14 13 -25 28 -25 32 0 13 -26 38
-39 38 -6 0 -15 9 -21 20 -6 11 -16 19 -23 18 -7 -2 -26 7 -44 20 -17 12 -36
22 -42 22 -6 0 -11 5 -11 11 0 5 -4 8 -9 5 -10 -6 -31 45 -31 75 0 11 -5 19
-11 19 -5 0 -8 -4 -5 -9z m-27 -47 c-3 -3 -12 -4 -19 -1 -8 3 -5 6 6 6 11 1
17 -2 13 -5z m23 -24 c0 -5 -4 -10 -10 -10 -5 0 -10 5 -10 10 0 6 5 10 10 10
6 0 10 -4 10 -10z"/>
<path d="M8001 10994 c0 -11 3 -14 6 -6 3 7 2 16 -1 19 -3 4 -6 -2 -5 -13z"/>
<path d="M1420 9900 c0 -5 5 -10 10 -10 6 0 10 5 10 10 0 6 -4 10 -10 10 -5 0
-10 -4 -10 -10z"/>
<path d="M960 5108 c0 -21 0 -21 23 -2 12 10 24 20 26 21 2 2 -8 3 -22 3 -21
0 -27 -5 -27 -22z"/>
<path d="M540 5027 c0 -20 22 -37 47 -37 24 0 24 0 6 25 -19 26 -53 34 -53 12z"/>
<path d="M1432 4300 c0 -14 2 -19 5 -12 2 6 2 18 0 25 -3 6 -5 1 -5 -13z"/>
<path d="M1661 4294 c0 -11 3 -14 6 -6 3 7 2 16 -1 19 -3 4 -6 -2 -5 -13z"/>
<path d="M1400 4233 c0 -28 3 -34 10 -23 13 20 13 47 0 55 -6 4 -10 -9 -10
-32z"/>
<path d="M1500 4250 c0 -5 5 -10 11 -10 5 0 7 5 4 10 -3 6 -8 10 -11 10 -2 0
-4 -4 -4 -10z"/>
<path d="M1364 4224 c3 -9 6 -28 7 -42 0 -25 1 -26 9 -5 10 24 2 63 -12 63 -6
0 -7 -7 -4 -16z"/>
<path d="M2130 4211 c0 -5 7 -11 15 -15 9 -3 15 0 15 9 0 8 -7 15 -15 15 -8 0
-15 -4 -15 -9z"/>
<path d="M1541 4174 c0 -11 3 -14 6 -6 3 7 2 16 -1 19 -3 4 -6 -2 -5 -13z"/>
<path d="M1270 4170 c0 -5 5 -10 11 -10 5 0 7 5 4 10 -3 6 -8 10 -11 10 -2 0
-4 -4 -4 -10z"/>
<path d="M1181 4094 c0 -11 3 -14 6 -6 3 7 2 16 -1 19 -3 4 -6 -2 -5 -13z"/>
<path d="M970 3928 c0 -16 5 -28 10 -28 13 0 13 20 0 40 -8 12 -10 9 -10 -12z"/>
<path d="M1001 3934 c0 -11 3 -14 6 -6 3 7 2 16 -1 19 -3 4 -6 -2 -5 -13z"/>
<path d="M886 3821 c-4 -7 -5 -15 -2 -18 9 -9 19 4 14 18 -4 11 -6 11 -12 0z"/>
<path d="M880 3755 c0 -8 2 -15 4 -15 2 0 6 7 10 15 3 8 1 15 -4 15 -6 0 -10
-7 -10 -15z"/>
<path d="M906 3744 c-4 -9 -4 -19 -2 -21 8 -8 26 8 26 23 0 19 -16 18 -24 -2z"/>
<path d="M835 3647 c-4 -10 -5 -21 -1 -24 10 -10 18 4 13 24 -4 17 -4 17 -12
0z"/>
<path d="M721 3614 c0 -11 3 -14 6 -6 3 7 2 16 -1 19 -3 4 -6 -2 -5 -13z"/>
<path d="M477 3426 c-4 -10 -7 -25 -6 -34 0 -11 4 -9 10 7 5 13 8 29 6 35 -2
5 -6 2 -10 -8z"/>
<path d="M317 3213 c-4 -3 -7 -20 -7 -38 0 -24 5 -31 20 -32 24 -2 26 13 5 33
-8 8 -12 21 -9 29 6 16 2 20 -9 8z"/>
<path d="M387 3207 c-3 -8 -1 -20 4 -28 6 -10 9 -7 9 14 0 29 -5 35 -13 14z"/>
<path d="M284 3199 c-12 -20 -22 -79 -13 -79 8 0 12 12 24 73 4 20 -1 22 -11
6z"/>
<path d="M267 3104 c-4 -4 -7 -14 -7 -23 0 -11 3 -12 11 -4 6 6 10 16 7 23 -2
6 -7 8 -11 4z"/>
<path d="M217 3062 c-5 -10 -9 -87 -4 -82 2 3 11 19 19 36 12 24 12 32 2 42
-7 6 -15 8 -17 4z"/>
<path d="M242 2990 c0 -14 2 -19 5 -12 2 6 2 18 0 25 -3 6 -5 1 -5 -13z"/>
<path d="M110 2895 c0 -8 5 -15 10 -15 6 0 10 7 10 15 0 8 -4 15 -10 15 -5 0
-10 -7 -10 -15z"/>
<path d="M90 2863 c-19 -8 -30 -23 -30 -45 0 -15 3 -15 30 -2 18 9 30 23 30
35 0 20 -4 21 -30 12z"/>
<path d="M4240 2699 c0 -5 5 -7 10 -4 6 3 10 8 10 11 0 2 -4 4 -10 4 -5 0 -10
-5 -10 -11z"/>
<path d="M1201 2544 c0 -11 3 -14 6 -6 3 7 2 16 -1 19 -3 4 -6 -2 -5 -13z"/>
<path d="M1012 2495 c0 -16 2 -22 5 -12 2 9 2 23 0 30 -3 6 -5 -1 -5 -18z"/>
<path d="M4400 2488 c0 -18 33 -33 50 -23 5 3 10 13 10 21 0 12 -3 12 -20 2
-17 -11 -22 -10 -30 2 -8 13 -10 13 -10 -2z"/>
<path d="M1121 2474 c0 -11 3 -14 6 -6 3 7 2 16 -1 19 -3 4 -6 -2 -5 -13z"/>
<path d="M780 2410 c-4 -45 -8 -55 -22 -54 -14 1 -18 -6 -18 -29 0 -24 3 -28
12 -19 20 20 28 14 29 -25 0 -21 7 -54 15 -73 8 -19 11 -24 8 -10 -4 14 -10
79 -13 145 -5 93 -8 108 -11 65z"/>
<path d="M931 2414 c0 -11 3 -14 6 -6 3 7 2 16 -1 19 -3 4 -6 -2 -5 -13z"/>
<path d="M966 2421 c-4 -7 -5 -15 -2 -18 9 -9 19 4 14 18 -4 11 -6 11 -12 0z"/>
<path d="M741 2394 c0 -11 3 -14 6 -6 3 7 2 16 -1 19 -3 4 -6 -2 -5 -13z"/>
<path d="M818 2378 c-8 -20 2 -158 11 -158 6 0 4 119 -2 160 -2 12 -4 12 -9
-2z"/>
<path d="M1041 2364 c0 -11 3 -14 6 -6 3 7 2 16 -1 19 -3 4 -6 -2 -5 -13z"/>
<path d="M700 2326 c0 -14 5 -28 10 -31 6 -3 10 5 10 19 0 14 -4 28 -10 31 -6
3 -10 -5 -10 -19z"/>
<path d="M850 2300 c0 -30 5 -62 10 -70 11 -17 13 -11 10 50 -3 69 -19 86 -20
20z"/>
<path d="M632 2320 c0 -14 2 -19 5 -12 2 6 2 18 0 25 -3 6 -5 1 -5 -13z"/>
<path d="M667 2327 c-4 -11 -4 -23 -1 -28 3 -6 3 -18 -1 -27 -6 -15 -8 -15
-15 3 -7 17 -9 17 -9 3 -1 -11 -9 -18 -20 -18 -10 0 -22 -8 -25 -17 -8 -19
-22 -8 -29 22 -3 11 -6 -2 -7 -30 -1 -27 -4 -41 -7 -30 -7 30 -23 42 -24 20
-1 -11 -1 -23 0 -27 0 -5 -3 -8 -9 -8 -5 0 -10 7 -10 15 0 8 -4 15 -10 15 -5
0 -10 -15 -10 -32 0 -23 -3 -29 -9 -19 -6 9 -11 10 -15 2 -10 -15 -49 -14 -65
2 -11 10 -14 10 -18 0 -9 -25 -23 -13 -23 20 l-1 32 -14 -30 c-7 -16 -14 -24
-14 -16 -1 10 -5 11 -14 3 -6 -6 -27 -9 -45 -8 -28 2 -32 -1 -33 -23 -1 -24
-2 -22 -15 18 -4 11 -7 10 -18 -4 -13 -18 -14 -18 -24 1 -11 19 -11 19 -13 -1
-1 -11 -1 -29 0 -40 0 -16 -2 -15 -9 5 -9 22 -16 25 -53 25 -23 -1 -57 -9 -74
-18 l-33 -18 1 -102 c0 -56 3 -96 6 -89 4 10 9 9 24 -4 18 -16 19 -16 19 14 0
39 20 43 21 5 1 -17 3 -21 6 -10 5 19 38 23 48 6 4 -6 14 -8 22 -5 8 3 24 1
35 -5 14 -8 28 -7 48 1 22 9 32 9 49 -2 18 -11 23 -11 31 2 9 13 10 13 10 0 0
-13 1 -13 11 0 8 11 12 12 16 3 2 -7 10 -13 17 -13 10 0 11 10 3 45 -6 28 -7
49 -1 54 15 14 114 1 114 -15 0 -8 5 -14 11 -14 5 0 8 4 5 8 -2 4 -1 14 4 22
7 12 12 12 21 3 10 -10 15 -9 25 5 12 15 13 15 14 1 0 -13 9 -16 40 -15 35 1
40 4 40 23 0 13 -5 23 -10 23 -11 0 -4 43 11 70 5 9 6 2 3 -17 -5 -26 -3 -33
9 -33 9 0 18 4 21 9 10 16 56 20 56 5 0 -32 27 -10 39 31 15 51 6 99 -10 56
-13 -34 -30 -14 -36 43 -5 39 -9 46 -24 41 -15 -5 -18 1 -21 37 -2 31 -5 38
-11 25z m47 -123 c9 -24 7 -28 -9 -14 -17 14 -20 30 -6 30 5 0 12 -7 15 -16z"/>
<path d="M1725 2310 c3 -5 8 -10 11 -10 2 0 4 5 4 10 0 6 -5 10 -11 10 -5 0
-7 -4 -4 -10z"/>
<path d="M892 2280 c0 -14 2 -19 5 -12 2 6 2 18 0 25 -3 6 -5 1 -5 -13z"/>
<path d="M740 2264 c0 -8 5 -12 10 -9 6 3 10 10 10 16 0 5 -4 9 -10 9 -5 0
-10 -7 -10 -16z"/>
<path d="M421 2220 c0 -8 4 -22 9 -30 12 -18 12 -2 0 25 -6 13 -9 15 -9 5z"/>
<path d="M1771 2190 c0 -8 4 -36 8 -62 4 -27 5 -48 2 -48 -4 0 -7 -18 -7 -40
-1 -34 2 -40 19 -40 17 0 19 -5 13 -31 -3 -17 -6 -35 -6 -40 0 -5 -4 -9 -10
-9 -5 0 -10 10 -10 23 0 12 -6 39 -14 61 -12 36 -14 37 -21 15 -8 -24 -8 -23
-12 5 -4 25 -8 28 -34 22 -23 -4 -29 -2 -29 12 0 9 -5 24 -11 32 -9 13 -10 13
-7 0 3 -24 -25 -90 -39 -90 -7 0 -13 -6 -13 -14 0 -20 -25 -37 -44 -30 -13 5
-14 9 -5 20 7 8 9 17 5 21 -3 4 -13 -2 -21 -13 -14 -19 -14 -19 -16 1 -1 13
-4 9 -8 -10 -4 -18 -13 -30 -22 -30 -19 0 -49 -23 -49 -37 0 -6 12 -19 26 -30
14 -12 23 -27 20 -35 -3 -8 -2 -12 3 -9 4 3 35 1 67 -4 39 -6 60 -6 62 0 2 6
9 10 15 10 7 0 18 9 25 20 7 12 17 18 22 15 5 -3 11 -1 15 5 4 6 13 5 25 -2
15 -10 22 -10 32 0 18 18 88 16 88 -3 0 -8 7 -15 16 -15 12 0 15 8 11 34 -4
32 -2 35 27 42 58 13 106 10 107 -6 1 -22 17 20 18 48 1 12 -3 22 -9 22 -5 0
-10 -8 -10 -17 0 -14 -9 -18 -40 -18 -25 0 -40 5 -40 13 0 6 -11 12 -24 12
-13 0 -31 3 -40 6 -11 4 -16 0 -16 -12 -1 -21 -39 52 -40 75 0 11 4 10 19 -3
16 -15 19 -15 24 -1 4 8 3 25 -2 37 -6 18 -9 19 -14 5 -9 -25 -27 -21 -27 6 0
12 -7 40 -15 62 -8 22 -14 33 -14 25z m-41 -232 c0 -14 -5 -18 -15 -14 -8 3
-21 -2 -30 -10 -16 -16 -18 -12 -9 22 8 29 54 30 54 2z"/>
<path d="M1696 2181 c-4 -7 -5 -15 -2 -18 9 -9 19 4 14 18 -4 11 -6 11 -12 0z"/>
<path d="M1743 2140 c-15 -23 -17 -50 -4 -50 16 0 28 25 22 48 -6 22 -6 22
-18 2z"/>
<path d="M1586 2071 c-4 -7 -5 -15 -2 -18 9 -9 19 4 14 18 -4 11 -6 11 -12 0z"/>
<path d="M1928 2073 c7 -3 16 -2 19 1 4 3 -2 6 -13 5 -11 0 -14 -3 -6 -6z"/>
<path d="M2193 2064 c-8 -21 13 -42 28 -27 13 13 5 43 -11 43 -6 0 -13 -7 -17
-16z"/>
<path d="M588 1993 c7 -3 16 -2 19 1 4 3 -2 6 -13 5 -11 0 -14 -3 -6 -6z"/>
<path d="M2080 1985 c0 -19 11 -19 36 0 18 14 18 14 -8 15 -18 0 -28 -5 -28
-15z"/>
<path d="M2300 1964 c0 -9 5 -14 12 -12 18 6 21 28 4 28 -9 0 -16 -7 -16 -16z"/>
<path d="M4020 1965 c0 -9 5 -15 11 -13 6 2 11 8 11 13 0 5 -5 11 -11 13 -6 2
-11 -4 -11 -13z"/>
<path d="M4065 1960 c3 -5 8 -10 11 -10 2 0 4 5 4 10 0 6 -5 10 -11 10 -5 0
-7 -4 -4 -10z"/>
<path d="M2707 1953 c-15 -15 -6 -33 17 -33 20 0 36 16 36 36 0 7 -46 5 -53
-3z"/>
<path d="M3165 1930 c-3 -5 1 -10 9 -10 9 0 16 5 16 10 0 6 -4 10 -9 10 -6 0
-13 -4 -16 -10z"/>
<path d="M3304 1927 c-19 -10 -20 -13 -7 -39 16 -30 63 -41 63 -13 0 8 16 18
37 24 30 9 40 7 62 -8 31 -23 50 -27 74 -17 20 10 23 39 4 55 -10 8 -17 7 -25
-1 -9 -9 -12 -9 -12 0 0 16 -27 15 -33 0 -4 -10 -8 -9 -16 2 -7 10 -11 11 -11
3 0 -7 -11 -13 -25 -13 -14 0 -25 4 -25 9 0 12 -59 10 -86 -2z"/>
<path d="M3625 1910 c-3 -5 -15 -10 -26 -10 -18 0 -26 -20 -13 -32 7 -7 74 13
74 22 0 15 -28 31 -35 20z"/>
<path d="M1400 1865 c0 -18 5 -25 20 -25 11 0 20 6 20 13 0 7 -9 18 -20 25
-18 11 -20 10 -20 -13z"/>
<path d="M3040 1860 c-32 -28 -33 -30 -12 -30 12 0 26 8 29 18 4 9 11 20 17
24 6 4 8 9 5 12 -3 3 -20 -8 -39 -24z"/>
<path d="M3680 1880 c0 -5 7 -10 16 -10 8 0 12 5 9 10 -3 6 -10 10 -16 10 -5
0 -9 -4 -9 -10z"/>
<path d="M3390 1851 c0 -5 11 -11 25 -13 17 -4 25 -1 25 8 0 8 -11 14 -25 14
-14 0 -25 -4 -25 -9z"/>
<path d="M2890 1820 c-13 -8 -13 -10 2 -10 9 0 21 -8 27 -17 8 -14 12 -15 25
-4 25 21 19 41 -11 41 -16 0 -35 -5 -43 -10z"/>
<path d="M1512 1780 c-14 -23 -12 -24 22 -9 14 7 23 16 20 20 -9 15 -29 10
-42 -11z"/>
<path d="M1426 1781 c-4 -7 -5 -15 -2 -18 9 -9 19 4 14 18 -4 11 -6 11 -12 0z"/>
<path d="M1520 1739 c0 -18 2 -19 15 -9 8 7 15 16 15 21 0 5 -7 9 -15 9 -9 0
-15 -9 -15 -21z"/>
<path d="M4940 1391 c0 -11 5 -23 10 -26 6 -4 10 5 10 19 0 14 -4 26 -10 26
-5 0 -10 -9 -10 -19z"/>
<path d="M4960 1290 c0 -5 5 -10 11 -10 5 0 7 5 4 10 -3 6 -8 10 -11 10 -2 0
-4 -4 -4 -10z"/>
<path d="M5020 1215 c-10 -12 -10 -15 4 -15 9 0 16 7 16 15 0 8 -2 15 -4 15
-2 0 -9 -7 -16 -15z"/>
<path d="M3145 690 c3 -5 11 -10 16 -10 6 0 7 5 4 10 -3 6 -11 10 -16 10 -6 0
-7 -4 -4 -10z"/>
<path d="M3930 650 c0 -5 5 -10 11 -10 5 0 7 5 4 10 -3 6 -8 10 -11 10 -2 0
-4 -4 -4 -10z"/>
<path d="M4625 651 c-16 -3 -25 -9 -20 -13 13 -8 65 2 65 13 0 10 -1 10 -45 0z"/>
<path d="M3850 643 c0 -5 4 -15 10 -23 11 -18 25 -7 17 15 -6 15 -27 21 -27 8z"/>
<path d="M3978 643 c6 -2 18 -2 25 0 6 3 1 5 -13 5 -14 0 -19 -2 -12 -5z"/>
<path d="M5011 647 c2 -1 12 -9 22 -16 15 -12 17 -12 11 3 -3 9 -13 16 -22 16
-8 0 -13 -1 -11 -3z"/>
<path d="M4888 633 c7 -3 16 -2 19 1 4 3 -2 6 -13 5 -11 0 -14 -3 -6 -6z"/>
<path d="M3431 621 c-8 -5 -9 -11 -3 -15 5 -3 12 1 16 9 6 17 6 18 -13 6z"/>
<path d="M3136 563 c6 -4 14 -15 17 -23 5 -11 6 -9 4 4 -1 11 -9 21 -17 23
-10 3 -11 2 -4 -4z"/>
<path d="M5603 563 c9 -2 25 -2 35 0 9 3 1 5 -18 5 -19 0 -27 -2 -17 -5z"/>
<path d="M3246 551 c-4 -7 -5 -15 -2 -18 9 -9 19 4 14 18 -4 11 -6 11 -12 0z"/>
<path d="M3292 546 c1 -10 8 -17 13 -17 15 1 12 24 -3 29 -9 3 -13 -2 -10 -12z"/>
<path d="M2945 480 c3 -5 8 -10 11 -10 2 0 4 5 4 10 0 6 -5 10 -11 10 -5 0 -7
-4 -4 -10z"/>
<path d="M2790 470 c0 -5 5 -10 11 -10 5 0 7 5 4 10 -3 6 -8 10 -11 10 -2 0
-4 -4 -4 -10z"/>
<path d="M2825 460 c3 -5 8 -10 11 -10 2 0 4 5 4 10 0 6 -5 10 -11 10 -5 0 -7
-4 -4 -10z"/>
<path d="M2455 400 c-19 -8 -19 -9 3 -9 12 -1 22 4 22 9 0 6 -1 10 -2 9 -2 0
-12 -4 -23 -9z"/>
<path d="M2161 374 c0 -11 3 -14 6 -6 3 7 2 16 -1 19 -3 4 -6 -2 -5 -13z"/>
<path d="M2521 354 c0 -11 3 -14 6 -6 3 7 2 16 -1 19 -3 4 -6 -2 -5 -13z"/>
<path d="M2641 334 c0 -11 3 -14 6 -6 3 7 2 16 -1 19 -3 4 -6 -2 -5 -13z"/>
<path d="M2445 320 c-3 -6 1 -7 9 -4 18 7 21 14 7 14 -6 0 -13 -4 -16 -10z"/>
<path d="M2161 274 c0 -11 3 -14 6 -6 3 7 2 16 -1 19 -3 4 -6 -2 -5 -13z"/>
<path d="M1355 260 c3 -5 8 -10 11 -10 2 0 4 5 4 10 0 6 -5 10 -11 10 -5 0 -7
-4 -4 -10z"/>
<path d="M1200 204 c0 -8 5 -12 10 -9 6 4 8 11 5 16 -9 14 -15 11 -15 -7z"/>
<path d="M1475 210 c-3 -5 3 -10 14 -10 12 0 21 5 21 10 0 6 -6 10 -14 10 -8
0 -18 -4 -21 -10z"/>
<path d="M1082 175 c12 -27 23 -31 34 -13 4 6 -1 17 -11 25 -28 20 -36 16 -23
-12z"/>
<path d="M1038 163 c7 -3 16 -2 19 1 4 3 -2 6 -13 5 -11 0 -14 -3 -6 -6z"/>
<path d="M740 145 c0 -19 29 -65 41 -65 9 0 4 21 -14 58 -12 25 -27 29 -27 7z"/>
<path d="M270 116 c0 -18 27 -29 36 -14 4 5 0 14 -7 19 -20 13 -29 11 -29 -5z"/>
<path d="M880 120 c0 -16 32 -70 42 -70 4 0 8 7 8 15 0 8 -4 15 -10 15 -5 0
-10 5 -10 11 0 6 -7 17 -15 25 -10 10 -15 11 -15 4z"/>
<path d="M322 105 c-1 -11 5 -29 13 -39 13 -17 15 -18 15 -3 0 9 -4 17 -9 17
-5 0 -12 10 -14 23 -4 19 -4 19 -5 2z"/>
<path d="M1201 104 c0 -11 3 -14 6 -6 3 7 2 16 -1 19 -3 4 -6 -2 -5 -13z"/>
<path d="M720 98 c0 -10 -5 -18 -11 -18 -6 0 -9 -6 -6 -12 2 -7 0 -25 -4 -40
-7 -26 -5 -28 22 -28 27 0 29 3 29 38 0 39 -29 97 -30 60z"/>
<path d="M1280 94 c0 -8 5 -12 10 -9 6 3 10 10 10 16 0 5 -4 9 -10 9 -5 0 -10
-7 -10 -16z"/>
<path d="M551 95 c0 -5 4 -19 9 -30 7 -17 9 -17 9 -2 2 31 20 18 32 -23 11
-36 15 -40 46 -40 23 0 33 5 33 15 0 18 -30 20 -31 3 0 -7 -6 -2 -12 12 -21
43 -41 70 -54 70 -7 0 -13 -6 -13 -12 0 -9 -4 -8 -10 2 -5 8 -9 11 -9 5z"/>
<path d="M360 86 c0 -2 7 -7 16 -10 8 -3 12 -2 9 4 -6 10 -25 14 -25 6z"/>
<path d="M868 65 c5 -30 -14 -34 -23 -5 -3 11 -11 20 -16 20 -10 0 -12 -40 -3
-64 7 -19 44 -22 44 -3 0 8 3 7 10 -3 16 -25 22 -4 10 39 -12 44 -30 57 -22
16z"/>
<path d="M961 28 c-1 -20 4 -28 15 -28 12 0 14 4 7 13 -6 6 -13 19 -16 27 -3
9 -6 3 -6 -12z"/>
<path d="M1000 25 c0 -18 5 -25 20 -25 23 0 24 4 10 31 -15 27 -30 24 -30 -6z"/>
<path d="M345 20 c-3 -5 -12 -7 -19 -4 -8 3 -17 1 -21 -5 -4 -7 13 -11 49 -11
45 0 56 3 56 16 0 13 -3 14 -14 5 -10 -8 -16 -9 -21 -1 -8 13 -22 13 -30 0z"/>
<path d="M480 15 c0 -12 13 -15 55 -15 34 0 55 4 55 11 0 6 -7 9 -15 5 -8 -3
-15 -1 -15 4 0 6 -18 10 -40 10 -29 0 -40 -4 -40 -15z"/>
</g>
</svg>
